<?xml version="1.0" encoding="utf-8"?>
<!-- Generator: Adobe Illustrator 24.0.2, SVG Export Plug-In . SVG Version: 6.00 Build 0)  -->
<svg version="1.1" id="Layer_1" xmlns="http://www.w3.org/2000/svg" xmlns:xlink="http://www.w3.org/1999/xlink" x="0px" y="0px"
	 viewBox="0 0 1280 700" style="enable-background:new 0 0 1280 700;" xml:space="preserve">
<style type="text/css">
	.st0{fill:#16A34A;}
	.st1{fill:#21D65D;}
</style>
<rect x="-8" y="-7" class="st0" width="1296" height="713"/>
<g>
	<g>
		<path class="st1" d="M1002.3,642.2c-1.4,1.4-2.2,3.3-2.2,5.3c0,0.8,0.6,1.4,1.4,1.4c0,0,0,0,0,0h38c0.4,0,0.7-0.2,1-0.4
			c0.3-0.3,0.4-0.6,0.4-1c-0.2-5.6-4.6-10-10.2-10.2c-3.7-5.4-10.8-7.4-16.8-4.9c-2.4-3.2-6.1-5.1-10-5.2
			c-5.3-7.8-15.9-9.8-23.7-4.5c-2.8,1.9-5,4.7-6.3,7.9c-4.5,0.6-7.9,4.5-7.9,9c0,0.8,0.7,1.5,1.5,1.5l0,0h36
			C1003.1,641.4,1002.7,641.8,1002.3,642.2z M1019.1,634.2c3.8,0,7.4,2,9.4,5.3c0.3,0.4,0.8,0.7,1.3,0.7h0.4c3.5,0,6.6,2.4,7.4,5.9
			h-34.6c0.6-1.9,2.4-3.2,4.3-3.3c0.6,0,1.1-0.4,1.3-1C1010.1,637.3,1014.3,634.2,1019.1,634.2L1019.1,634.2z M970.1,638.2
			c0.6-2.7,3-4.6,5.7-4.6c0.6,0,1.1-0.4,1.3-1c2.4-7.2,10.1-11.1,17.3-8.8c3.1,1,5.7,3.1,7.4,5.9c0.3,0.4,0.8,0.7,1.3,0.7h0.5
			c2.9,0,5.7,1.3,7.5,3.6c-1.6,1.1-2.9,2.6-3.9,4.3L970.1,638.2z"/>
		<path class="st1" d="M1109,619c0.3-0.3,0.4-0.7,0.4-1.1c-0.4-6-5.4-10.6-11.4-10.6c-0.8,0-1.5,0.1-2.3,0.2
			c-2.2-2.4-5.2-3.7-8.4-3.7c-1.9,0-3.7,0.5-5.3,1.3c-6.4-4.6-15.4-3.2-20,3.3c-0.7,0.9-1.2,1.9-1.7,3c-3.3,0.5-5.9,3.1-6.5,6.4
			c-0.1,0.4,0,0.8,0.3,1.2c0.3,0.3,0.7,0.5,1.1,0.5h52.7C1108.4,619.5,1108.8,619.3,1109,619z M1057.3,617.5
			c0.9-1.5,2.4-2.4,4.1-2.4c0.6,0,1.1-0.4,1.3-1c2-6,8.5-9.3,14.5-7.3c1.4,0.5,2.6,1.2,3.8,2.1c0.5,0.4,1.2,0.4,1.7,0.1
			c3.8-2.4,8.7-1.6,11.5,2c0.4,0.5,1,0.7,1.5,0.5c0.8-0.2,1.6-0.3,2.4-0.3c3.9,0,7.3,2.7,8.3,6.4L1057.3,617.5z"/>
		<path class="st1" d="M1234.5,647.1l-15-8.7c-0.7-0.4-1.5-0.2-2,0.5c-0.4,0.7-0.2,1.5,0.5,2c0,0,0,0,0.1,0l15,8.7
			c0.2,0.1,0.5,0.2,0.7,0.2c0.8,0,1.4-0.7,1.4-1.4C1235.2,647.8,1234.9,647.4,1234.5,647.1z"/>
		<path class="st1" d="M1234.5,655.9l-15-8.7c-0.7-0.4-1.5-0.2-2,0.5c-0.4,0.7-0.2,1.5,0.5,2c0,0,0,0,0.1,0l15,8.7
			c0.2,0.1,0.5,0.2,0.7,0.2c0.8,0,1.4-0.6,1.4-1.4C1235.2,656.6,1235,656.1,1234.5,655.9z"/>
		<path class="st1" d="M1234.5,664.6l-15-8.7c-0.6-0.4-1.5-0.3-2,0.4c-0.4,0.6-0.3,1.5,0.4,2c0.1,0,0.1,0.1,0.2,0.1l15,8.7
			c0.2,0.1,0.5,0.2,0.7,0.2c0.8,0,1.4-0.7,1.4-1.4C1235.3,665.4,1235,664.9,1234.5,664.6L1234.5,664.6z"/>
		<path class="st1" d="M1234.5,673.4l-15-8.7c-0.6-0.4-1.5-0.3-2,0.4c-0.4,0.6-0.3,1.5,0.4,2c0.1,0,0.1,0.1,0.2,0.1l15,8.7
			c0.2,0.1,0.5,0.2,0.7,0.2c0.8,0,1.4-0.7,1.4-1.4C1235.2,674.1,1234.9,673.7,1234.5,673.4z"/>
		<path class="st1" d="M1234.3,682.2l-15-8.7c-0.7-0.4-1.5-0.2-2,0.5c-0.4,0.7-0.2,1.5,0.5,2c0,0,0,0,0.1,0l15,8.7
			c0.2,0.1,0.5,0.2,0.7,0.2c0.8,0,1.4-0.7,1.4-1.4C1235,682.9,1234.7,682.4,1234.3,682.2L1234.3,682.2z"/>
		<path class="st1" d="M1234.5,691l-15-8.7c-0.7-0.4-1.5-0.2-2,0.5c-0.4,0.7-0.2,1.5,0.5,2c0,0,0,0,0.1,0l15,8.7
			c0.2,0.1,0.5,0.2,0.7,0.2c0.8,0,1.4-0.7,1.4-1.4C1235.2,691.7,1234.9,691.2,1234.5,691z"/>
		<path class="st1" d="M1278.8,662.9l-26.4-14.7l0,0l-0.2-0.1l0,0l-0.2,0h0.8h-0.1h-0.4h-0.1l0,0l-0.1,0l0,0l-0.2,0.1l0,0l-11.6,6.7
			v-12.1c0-0.5-0.3-1-0.7-1.2l-26-15l0,0l-0.2-0.1h0.2h-0.2l0,0h-0.1h-0.4h-0.1l0,0h-0.1l0,0l-0.2,0.1l0,0l-11.5,6.6v-13.2
			c0-0.5-0.3-1-0.7-1.2l-25.5-14.7l0,0l-0.2-0.1l0,0l-0.1-0.1l0,0h-0.1h-0.8h-0.1l0,0l-0.1,0.1l0,0c-0.1,0-0.1,0-0.2,0.1l0,0
			l-25.5,14.7c-0.4,0.3-0.7,0.7-0.7,1.2v13.6l-11.9-7l0,0l-0.1-0.1l0,0h-0.1l0,0h-0.1h-0.4h-0.1l0,0h-0.1l0,0l-0.2,0.1l0,0l-25.5,15
			c-0.4,0.3-0.7,0.7-0.7,1.2v12.7l-12.4-7.3l0,0l-0.2-0.1l0,0l-0.1,0h0.7h-0.1h-0.4h-0.1l0,0l-0.2,0l0,0l-0.2,0.1l0,0l-26.5,14.7
			c-0.5,0.3-0.7,0.7-0.7,1.2v32.8c-0.1,0.8,0.5,1.5,1.4,1.5c0.8,0.1,1.5-0.5,1.6-1.3c0-0.1,0-0.2,0-0.2v-31.8l22.6-13.3v45.1
			c0,0.8,0.7,1.5,1.5,1.5s1.5-0.7,1.5-1.5v0.1v-45.3l11.6,6.6c0.1,0,0.2,0.1,0.2,0.1v4.4l-6.6-3.8c-0.7-0.5-1.6-0.3-2.1,0.4
			c-0.5,0.7-0.3,1.6,0.4,2.1c0.1,0,0.1,0.1,0.2,0.1l8.1,4.7v5.7l-6.6-3.8c-0.7-0.4-1.6-0.2-2,0.5s-0.2,1.6,0.5,2c0,0,0.1,0,0.1,0
			l8.1,4.6v5.7l-6.6-3.8c-0.7-0.4-1.6-0.2-2,0.5s-0.2,1.6,0.5,2c0,0,0.1,0,0.1,0l8.1,4.6v5.7l-6.6-3.8c-0.7-0.4-1.6-0.1-2,0.6
			c-0.4,0.7-0.1,1.5,0.5,2l8.1,4.6v4.3c0,0.8,0.7,1.5,1.5,1.5c0.8,0,1.5-0.7,1.5-1.5v-22.5c0.2-0.4,0.2-0.8,0-1.2v-30.2l22.6-13.1
			v66.5c-0.1,0.8,0.5,1.5,1.4,1.6c0.8,0.1,1.5-0.5,1.6-1.4c0-0.1,0-0.2,0-0.2v-66.5l10.8,6.2v4l-6.3-3.6c-0.7-0.4-1.6-0.2-2,0.5
			c-0.4,0.7-0.2,1.6,0.5,2c0,0,0.1,0,0.1,0l7.8,4.5v5.7l-6.3-3.6c-0.7-0.4-1.6-0.2-2,0.5c-0.4,0.7-0.2,1.6,0.5,2c0,0,0.1,0,0.1,0
			l7.8,4.5v5.7l-6.3-3.6c-0.7-0.4-1.6-0.2-2,0.5c-0.4,0.7-0.2,1.6,0.5,2c0,0,0.1,0,0.1,0l7.8,4.5v5.7l-6.3-3.6
			c-0.7-0.5-1.6-0.3-2.1,0.4c-0.5,0.7-0.3,1.6,0.4,2.1c0.1,0,0.1,0.1,0.2,0.1l7.8,4.5v5.7l-6.3-3.6c-0.7-0.4-1.6-0.2-2,0.5
			c-0.4,0.7-0.2,1.6,0.5,2c0,0,0.1,0,0.1,0l7.8,4.5v5.7l-6.3-3.6c-0.7-0.4-1.6-0.2-2,0.5c-0.4,0.7-0.2,1.6,0.5,2c0,0,0.1,0,0.1,0
			l7.8,4.5v8.5c-0.1,0.8,0.5,1.5,1.4,1.6c0.8,0.1,1.5-0.5,1.6-1.4c0-0.1,0-0.2,0-0.2V621l22.6-13.1v89.3c0,0.8,0.7,1.5,1.5,1.5
			s1.5-0.7,1.5-1.5V608l22.6,13.1v76.2c-0.1,0.8,0.5,1.5,1.4,1.6c0.8,0.1,1.5-0.5,1.6-1.4c0-0.1,0-0.2,0-0.2v-60.4l10.8-6.2v66.6
			c0,0.8,0.7,1.5,1.5,1.5c0.8,0,1.5-0.7,1.5-1.5V697v-66.2l22.6,13.1v12.2c-0.2,0.4-0.2,0.8,0,1.1v40.7c0,0.8,0.7,1.5,1.5,1.5
			c0.8,0,1.5-0.7,1.5-1.5v-39.8l10.8-6.2v45.1c0,0.8,0.7,1.5,1.5,1.5s1.5-0.7,1.5-1.5v-0.1V652l22.6,13.1v31.8
			c0,0.8,0.7,1.4,1.5,1.4c0.8,0,1.5-0.6,1.5-1.4l0,0v-32.7C1279.5,663.6,1279.2,663.1,1278.8,662.9z"/>
		<path class="st1" d="M1273.6,668.4l-15-8.7c-0.6-0.4-1.5-0.3-2,0.4s-0.3,1.5,0.4,2c0.1,0,0.1,0.1,0.2,0.1l15,8.7
			c0.7,0.4,1.6,0.1,1.9-0.6C1274.5,669.6,1274.2,668.8,1273.6,668.4L1273.6,668.4z"/>
		<path class="st1" d="M1273.6,677.2l-15-8.6c-0.7-0.4-1.5-0.2-2,0.5s-0.2,1.5,0.5,2c0,0,0,0,0.1,0l15,8.7c0.7,0.4,1.6,0.1,1.9-0.6
			C1274.5,678.5,1274.2,677.6,1273.6,677.2L1273.6,677.2z"/>
		<path class="st1" d="M1273.6,686l-15-8.7c-0.7-0.4-1.5-0.2-2,0.5c-0.4,0.7-0.2,1.5,0.5,2c0,0,0,0,0.1,0l15,8.7
			c0.7,0.4,1.6,0.1,1.9-0.6C1274.5,687.2,1274.3,686.4,1273.6,686z"/>
		<path class="st1" d="M1273.6,694.7l-15-8.7c-0.7-0.4-1.6-0.1-1.9,0.6c-0.4,0.7-0.1,1.5,0.5,1.9l15,8.7c0.2,0.1,0.5,0.2,0.7,0.2
			c0.8,0,1.4-0.6,1.4-1.4C1274.3,695.5,1274.1,695,1273.6,694.7z"/>
		<path class="st1" d="M1195.7,624.4l-15-8.7c-0.7-0.3-1.6-0.1-1.9,0.7c-0.3,0.6-0.1,1.4,0.5,1.8l15,8.7c0.7,0.4,1.6,0.1,1.9-0.6
			C1196.5,625.7,1196.3,624.8,1195.7,624.4z"/>
		<path class="st1" d="M1195.7,633.2l-15-8.7c-0.7-0.3-1.6-0.1-1.9,0.7c-0.3,0.6-0.1,1.4,0.5,1.8l15,8.7c0.7,0.4,1.6,0.1,1.9-0.6
			C1196.5,634.4,1196.3,633.6,1195.7,633.2z"/>
		<path class="st1" d="M1195.7,642l-15-8.7c-0.7-0.3-1.6-0.1-1.9,0.7c-0.3,0.6-0.1,1.4,0.5,1.8l15,8.7c0.2,0.1,0.5,0.2,0.7,0.2
			c0.8,0,1.4-0.6,1.4-1.4C1196.4,642.7,1196.1,642.2,1195.7,642z"/>
		<path class="st1" d="M1196,650.7l-15-8.7c-0.7-0.3-1.6-0.1-1.9,0.7c-0.3,0.6-0.1,1.4,0.5,1.8l15,8.7c0.2,0.1,0.5,0.2,0.7,0.2
			c0.8,0,1.4-0.6,1.4-1.4C1196.7,651.4,1196.4,651,1196,650.7L1196,650.7z"/>
		<path class="st1" d="M1195.7,659.5l-15-8.7c-0.7-0.4-1.5-0.2-1.9,0.5c-0.4,0.7-0.2,1.5,0.5,1.9l15,8.7c0.7,0.4,1.6,0.1,1.9-0.6
			C1196.5,660.7,1196.3,659.9,1195.7,659.5z"/>
		<path class="st1" d="M1195.7,668.3l-15-8.7c-0.7-0.3-1.6-0.1-1.9,0.7c-0.3,0.6-0.1,1.4,0.5,1.8l15,8.7c0.7,0.4,1.6,0.1,1.9-0.6
			C1196.5,669.5,1196.3,668.7,1195.7,668.3z"/>
		<path class="st1" d="M1195.7,677l-15-8.7c-0.7-0.3-1.6-0.1-1.9,0.7c-0.3,0.6-0.1,1.4,0.5,1.8l15,8.7c0.7,0.4,1.6,0.1,1.9-0.6
			C1196.5,678.2,1196.3,677.4,1195.7,677z"/>
		<path class="st1" d="M1196,685.8l-15-8.7c-0.7-0.3-1.6-0.1-1.9,0.7c-0.3,0.6-0.1,1.4,0.5,1.8l15,8.6c0.2,0.1,0.5,0.2,0.7,0.2
			c0.8,0,1.4-0.6,1.4-1.4C1196.7,686.5,1196.4,686,1196,685.8L1196,685.8z"/>
		<path class="st1" d="M1157.1,621.2c-0.8,0-1.4,0.6-1.4,1.4v75.9c0,0.8,0.7,1.5,1.5,1.5c0.8,0,1.5-0.7,1.5-1.5v-75.9
			C1158.6,621.8,1158,621.2,1157.1,621.2L1157.1,621.2z"/>
		<path class="st1" d="M1165.9,616.6c-0.8,0-1.4,0.6-1.4,1.4v79.1c-0.1,0.8,0.5,1.5,1.4,1.5s1.5-0.5,1.6-1.3c0-0.1,0-0.2,0-0.2V618
			C1167.5,617.2,1166.8,616.6,1165.9,616.6L1165.9,616.6z"/>
		<path class="st1" d="M1116.8,644.7c-0.8,0-1.4,0.6-1.4,1.4v51.8c0,0.8,0.7,1.5,1.5,1.5c0.8,0,1.5-0.7,1.5-1.5v-51.8
			C1118.3,645.3,1117.7,644.7,1116.8,644.7L1116.8,644.7z"/>
		<path class="st1" d="M1126.6,638.7c-0.8,0-1.4,0.6-1.4,1.4v0.1v58c0.1,0.8,0.8,1.4,1.6,1.4c0.7-0.1,1.3-0.6,1.4-1.4v-58
			c0-0.8-0.6-1.4-1.4-1.4H1126.6z"/>
		<path class="st1" d="M1077.5,666.6c-0.8,0-1.4,0.6-1.4,1.4v29.4c0,0.8,0.7,1.5,1.5,1.5c0.8,0,1.5-0.7,1.5-1.5v-29.3
			C1079,667.3,1078.4,666.6,1077.5,666.6L1077.5,666.6z"/>
		<path class="st1" d="M1086.3,660.7c-0.8,0-1.4,0.6-1.4,1.4v35.4c0,0.8,0.7,1.5,1.5,1.5s1.5-0.7,1.5-1.5v-35.4
			C1087.9,661.3,1087.2,660.7,1086.3,660.7L1086.3,660.7z"/>
		<path class="st1" d="M942.9,648.7c-3.7,0-7.2,1.2-10.1,3.5c-3.4-11.8-15.8-18.7-27.6-15.2c-7.3,2.1-13.1,7.8-15.2,15.2
			c-7.1-5.5-17.4-4.2-22.9,2.9c-2.2,2.9-3.4,6.4-3.4,10c0,8.5,6.5,15.5,14.9,16.3v16c-0.1,0.8,0.5,1.5,1.4,1.6
			c0.8,0.1,1.5-0.5,1.6-1.4c0-0.1,0-0.2,0-0.2v-16.1c5.5-0.5,10.3-3.7,12.9-8.5c3.9,4.6,9.5,7.5,15.6,7.9v16.7
			c0,0.8,0.7,1.5,1.5,1.5s1.5-0.7,1.5-1.5v-16.8c6-0.4,11.7-3.2,15.5-7.8c2.6,4.8,7.5,8,13,8.5v16.1c-0.1,0.8,0.5,1.5,1.4,1.6
			s1.5-0.5,1.6-1.4c0-0.1,0-0.2,0-0.2v-16c9-1,15.5-9,14.5-18C958,655.1,951.1,648.9,942.9,648.7L942.9,648.7z M879.7,655.1
			c-0.8,0-2.1,1.4-2.1,1.4s0,0,0,0v3.1l-0.6-1.3c-0.6-0.5-1.5-0.3-2,0.3c-0.4,0.5-0.4,1.2,0,1.7l2.6,3.3v6.2l-5.4-6
			c-0.7-0.4-1.5-0.2-2,0.4c-0.3,0.5-0.3,1.1,0,1.5l8.3,8.1v4.5c0,0-12.9-7.4-12.1-14.8c0.7-6.8,6.5-11.9,13.3-12
			c3.5,0,6.8,1.3,9.3,3.7c-0.1,1-0.2,2-0.2,3c0,1.9,0.2,3.8,0.7,5.7c-0.1-0.1-0.1-0.2-0.2-0.3c-0.5-0.5-1.4-0.5-2,0l-6.9,6.2v-6.2
			l4.1-3.4c0.5-0.5,0.5-1.4,0-2c-0.6-0.5-1.4-0.5-2,0l-1.2,1.4v-3.2c0,0-0.9-1.4-1.7-1.4C879.8,655.1,879.7,655.1,879.7,655.1z
			 M881.5,678.3v-4.4l8.2-8.2c0.3-0.3,0.4-0.6,0.4-1c0.6,1.9,1.4,3.7,2.4,5.3C890.6,674.6,886.4,677.8,881.5,678.3z M911.9,677.6
			v-4.9l15.6-15.1c0.5-0.6,0.5-1.4,0-2c-0.5-0.6-1.4-0.6-2,0c0,0,0,0,0,0l-13.6,13.1v-7.3l8.6-8.2c0.5-0.5,0.5-1.4,0-2
			c-0.6-0.5-1.4-0.5-2,0l-6.7,6.2v-6.4l3.9-3.4c0.4-0.7,0.2-1.5-0.4-2c-0.5-0.3-1.1-0.3-1.5,0l-1,1.4v-3.2c0,0-1.1-1.4-1.8-1.4
			c-0.8,0-2.1,1.4-2.1,1.4v3l-0.6-1.3c-0.6-0.6-1.5-0.6-2,0c-0.5,0.5-0.5,1.4,0,2l3.6,3.4v6.2l-6.5-6.1c-0.6-0.5-1.5-0.3-2,0.3
			c-0.4,0.5-0.4,1.2,0,1.7l8.5,8.1v7.4l-13.4-13c-0.4-0.7-1.3-0.9-2-0.4c-0.7,0.4-0.9,1.3-0.4,2c0.1,0.2,0.3,0.3,0.4,0.4l15.4,15
			v5.1c0,0-19-10.1-18.3-20.7c0.8-10.7,10.1-18.7,20.7-17.9c10.7,0.8,18.7,10.1,17.9,20.7c-0.7,9.6-8.3,17.2-17.9,17.9L911.9,677.6z
			 M943.4,678.5v-4.7l8.5-8.1c0.6-0.5,0.8-1.4,0.3-2c-0.5-0.6-1.4-0.8-2-0.3c-0.1,0.1-0.2,0.2-0.3,0.3l-6.4,6.1v-6.2l3.7-3.3
			c0.5-0.6,0.3-1.5-0.3-2c-0.5-0.4-1.2-0.3-1.7,0l-1.7,1.3v-3.1c0.4-0.8-0.1-1.5-0.9-1.5c-0.8-0.1-1.5,0.5-1.5,1.3
			c0,0.1,0.5,0.2,0.5,0.2v3.1l-1.9-1.4c-0.6-0.5-1.4-0.5-2,0c-0.5,0.5-0.5,1.4,0,2l3.9,3.5v6.2l-6.6-6.2c-0.7-0.4-1.5-0.2-2,0.4
			c-0.3,0.5-0.3,1.1,0,1.5l8.6,8.2v4.4c-5.3-0.5-9.6-3.7-11.4-8.3c2.2-3.5,3.3-7.5,3.3-11.6c0-1-0.1-2-0.2-2.9
			c2.5-2.5,5.9-3.8,9.4-3.8c7.4,0,13.4,6,13.4,13.5c0,6.8-12,13.5-12,13.5H943.4z"/>
		<path class="st1" d="M1031.2,674.3c-0.9,0-1.8,0.1-2.7,0.3l-3.7-10.8c-0.2-0.6-0.8-1-1.4-1h-4.7c-0.8-0.1-1.5,0.5-1.6,1.4
			c-0.1,0.8,0.5,1.5,1.4,1.6c0.1,0,0.2,0,0.2,0h3.4l1.7,5.1c-1.1,1.7-5.1,8.1-5.9,9.3c-0.2,0.2-0.3,0.5-0.5,0.7
			c-0.3-0.3-0.6-0.4-1-0.4h-2.1c-0.5,0-1,0.3-1.2,0.7l-4.6-13.5h0.4c0.8,0.1,1.5-0.5,1.6-1.4s-0.5-1.5-1.4-1.6c-0.1,0-0.2,0-0.2,0
			h-5.4c-1.1,0-2.1,0.8-2.3,1.9c0,0.1,0,0.2,0,0.2v0.1v0.2c0.1,0.8,0.8,1.3,1.5,1.5h0.1c0.5-0.1,1.2-1,1.2-1h1.6l1.1,3.3l-3.7,4.9
			c-5.9-3.6-13.7-1.6-17.1,4.6c-3.1,5.5-1.3,12.7,4,16.2c5.9,3.9,13.7,2.1,17.3-3.9c0.2-0.4,0.4-0.8,0.6-1.2
			c0.3,0.4,0.7,0.7,1.2,0.7h2.4c0.6,0,1.2-0.4,1.3-1l0.3-1c2.1-0.1,3.7-1.8,3.7-3.9c0-0.1,0,0.5,0,0.3c0.6-0.5,1.2-1.1,1.7-1.7
			c-0.5,3,0.1,6.2,1.7,8.9c1.5,2.6,4,4.5,6.8,5.4c8.8,2.7,16.9-3.8,16.9-12.1c0-7.1-5.7-12.8-12.8-12.8L1031.2,674.3z M1003.5,679.9
			c0.8,0.9,1.4,1.9,1.9,2.9l-4.2,0.2L1003.5,679.9z M996.7,696.2c-5.3,0-9.6-4.3-9.6-9.6s4.3-9.6,9.6-9.6c1.7,0,3.3,0.4,4.7,1.2
			l-3.9,5.1h-0.8c-1.4,0-2.7,0.8-3.1,2.1c-0.7,2.2,0.9,4.2,3,4.2l9,0.4C1004.1,693.8,1000.6,696.2,996.7,696.2L996.7,696.2z
			 M1006.1,687.3l-9.4-1h-0.1c0,0-0.3,0.2-0.3,0c0-0.1,0.1-0.3,0.3,0.9h0.1l9.5-1.7v0.7C1006.3,686.4,1006.1,686.9,1006.1,687.3
			L1006.1,687.3z M1005.3,677.5l2.6-3.4l2.9,8.4l-2.3,0.1C1007.8,680.6,1006.7,678.9,1005.3,677.5L1005.3,677.5z M1012,685.9
			l-0.5,1.5l-2.3-0.1c0-0.3,0-0.6,0-0.9c0-0.3,0-0.6,0-0.9l2.9-0.1L1012,685.9z M1015.1,683.5L1015.1,683.5v-0.1h0.1
			C1015.2,683.4,1015.1,683.4,1015.1,683.5L1015.1,683.5z M1025,674.4l0.3,0.9c-0.5,0.2-0.9,0.5-1.3,0.7L1025,674.4z M1030.6,695.8
			c-5.2,0-9.5-4.2-9.5-9.5c0-3.5,2-6.8,5.1-8.4l2.9,8.8c0.2,0.6,0.7,1,1.4,1c0.2,0,0.3,0,0.5-0.1c0.7-0.3,1.1-1.1,0.9-1.8l-3-8.8
			c0.5-0.1,1.1-0.1,1.7-0.1c5.2,0,9.5,4.2,9.5,9.5S1035.8,695.9,1030.6,695.8L1030.6,695.8z"/>
		<path class="st1" d="M148.5,566.4h-1.3v-1.2c0-0.8-0.7-1.4-1.5-1.4c-0.8,0-1.5,0.6-1.5,1.4c0,0,0,0,0,0v1.2h-1.2
			c-0.8-0.1-1.5,0.5-1.6,1.4c-0.1,0.8,0.5,1.5,1.3,1.6c0.1,0,0.2,0,0.2,0h1.2v1.2c0,0.8,0.7,1.5,1.5,1.5c0.8,0,1.5-0.7,1.5-1.5v-1.2
			h1.2c0.8,0.1,1.5-0.5,1.6-1.4c0.1-0.8-0.5-1.5-1.3-1.6C148.7,566.4,148.6,566.4,148.5,566.4L148.5,566.4z"/>
		<path class="st1" d="M403.9,668.6h-0.7l-2.7-3.4c-0.3-0.3-0.7-0.5-1.1-0.5H391v-20.6h0.1c0.8,0.1,1.5-0.5,1.6-1.4
			c0.1-0.8-0.5-1.5-1.4-1.6c-0.1,0-0.2,0-0.2,0h-0.7l-2.7-3.4c-0.3-0.3-0.7-0.5-1.1-0.5h-3.4v-3.9h3.4c0.8,0,1.5-0.7,1.5-1.5
			c0-0.8-0.7-1.5-1.5-1.5h-0.3h-0.2v-18.7h-0.8c0.7-0.1,1.3-0.8,1.2-1.6c-0.1-0.7-0.6-1.3-1.2-1.4h-4.1v-14c0-5-3.4-9.3-7.9-10v-8.4
			c0-0.8-0.7-1.5-1.5-1.5c-0.8,0-1.5,0.7-1.5,1.5c0,0,0-0.6,0-0.6V586c-5.1,0.8-8.8,5.1-8.8,10.2v12.5h-4.1
			c-0.7-0.1-1.4,0.5-1.4,1.4c-0.1,0.8,0.5,1.5,1.2,1.6c0.1,0,0.1,0,0.2,0h0.1v18.7h-0.1c-0.7,0-1.4,0.7-1.4,1.5
			c0,0.8,0.6,1.5,1.4,1.5h3.1v3.9h-3.5c-0.4,0-0.8,0.2-1.1,0.5l-2.7,3.4h-0.7c-0.8-0.1-1.5,0.5-1.6,1.4c-0.1,0.8,0.5,1.5,1.4,1.6
			c0.1,0,0.2,0,0.2,0h0.1v20.6h-8.3c-0.4,0-0.8,0.2-1.1,0.5l-2.7,3.4h-0.9c-0.8,0-1.5,0.7-1.5,1.5c0,0.8,0.7,1.5,1.5,1.5h0.2v25.1
			c0,0.8,0.6,1.4,1.4,1.4l0,0h61.1c0.8,0,1.4-0.6,1.4-1.4v1.5v-26.6h0.1c0.8,0,1.5-0.7,1.5-1.5C405.4,669.3,404.7,668.6,403.9,668.6
			L403.9,668.6z M379.2,596.9v11.8h-2.9v-11.8H379.2z M371.9,588.1c3.5,0,6.6,2.5,7.3,5.9h-14.6C365.3,590.5,368.3,588,371.9,588.1
			L371.9,588.1z M374.3,596.9v11.8h-4.9v-11.8H374.3z M364.5,596.9h2.9v11.8h-2.9V596.9z M360.6,630.3v-18.7h22.6v18.7H360.6z
			 M379.2,633.2v4h-15.7v-3.9L379.2,633.2z M358.1,640.1h27.4l0.9,1h-29.3L358.1,640.1z M355.7,643.1h32.4v21.6h-32.4L355.7,643.1z
			 M345.1,667.7h53.6l0.9,1h-55.4L345.1,667.7z M357.6,696.2h-9.8v-14.4c0.1-2.6,2.4-4.7,5.1-4.6c2.5,0.1,4.6,2.1,4.7,4.6V696.2z
			 M376.3,696.2h-9.8V682c0-2.3,1.6-4.4,3.8-4.9c3.2-0.7,6,1.7,6,4.7V696.2z M395.9,696.2h-9.8V682c0-2.3,1.6-4.4,3.8-4.9
			c3.2-0.7,6,1.7,6,4.7V696.2z M400.9,696.2h-2V682c0-3.4-2.1-6.5-5.4-7.5c-5.4-1.6-10.4,2.3-10.4,7.2v14.4h-3.9V682
			c0-3.4-2.1-6.5-5.4-7.5c-5.4-1.6-10.4,2.3-10.4,7.2v14.4h-2.9V682c0-3.4-2.1-6.5-5.4-7.5c-5.4-1.6-10.4,2.3-10.4,7.2v14.4h-2
			v-24.6h58L400.9,696.2z"/>
		<path class="st1" d="M371.9,629.5c5.2,0,9.3-4.7,8.3-10.1c-0.6-3.3-3.3-5.9-6.6-6.6c-5.4-1.1-10.1,3-10.1,8.3c0,0,0,0,0,0
			C363.5,625.7,367.3,629.5,371.9,629.5z M370.4,615.6c0,0.1,0,0.1,0,0.2v5.3c0,0.8,0.6,1.4,1.4,1.4l0.1,0h4.1
			c0.8,0.1,1.5-0.5,1.6-1.4c0.1-0.8-0.5-1.5-1.4-1.6c-0.1,0-0.2,0-0.2,0h-2.7v-3.7c0-0.1,0-0.1,0-0.2c3.7,0.9,5.7,4.7,3.4,7.9
			c-1,1.4-2.6,2.2-4.2,2.3c-4.3,0.3-7.3-3.1-6.3-6.5C366.8,617.5,368.4,616,370.4,615.6L370.4,615.6z"/>
		<path class="st1" d="M359,646c-0.8,0-1.4,0.6-1.4,1.4v0v5.3c-0.1,0.8,0.5,1.5,1.4,1.5c0.8,0.1,1.5-0.5,1.6-1.3c0-0.1,0-0.2,0-0.2
			v-5.3C360.6,646.7,359.9,646,359,646L359,646z"/>
		<path class="st1" d="M363,645.5c-0.8,0-1.5,0.7-1.5,1.5l0,0v5.5c0,0.8,0.7,1.5,1.5,1.5c0.8,0,1.5-0.7,1.5-1.5V647
			C364.5,646.2,363.8,645.5,363,645.5z"/>
		<path class="st1" d="M367.9,645.5c-0.8,0-1.5,0.7-1.5,1.5l0,0v5.5c0,0.8,0.7,1.5,1.5,1.5c0.8,0,1.5-0.7,1.5-1.5V647
			C369.4,646.2,368.8,645.5,367.9,645.5z"/>
		<path class="st1" d="M371.9,645.5c-0.8,0-1.5,0.7-1.5,1.5l0,0v5.5c0,0.8,0.7,1.5,1.5,1.5c0.8,0,1.5-0.7,1.5-1.5c0,0,0,0,0,0V647
			C373.3,646.2,372.7,645.5,371.9,645.5z"/>
		<path class="st1" d="M375.8,645.5c-0.8,0-1.5,0.7-1.5,1.5l0,0v5.5c0,0.8,0.7,1.5,1.5,1.5c0.8,0,1.5-0.7,1.5-1.5c0,0,0,0,0,0V647
			C377.3,646.2,376.6,645.5,375.8,645.5z"/>
		<path class="st1" d="M379.8,645.5c-0.8,0-1.5,0.6-1.5,1.4c0,0,0,0,0,0v5.5c0,0.8,0.7,1.5,1.5,1.5c0.8,0,1.5-0.7,1.5-1.5V647
			C381.2,646.2,380.6,645.5,379.8,645.5z"/>
		<path class="st1" d="M384.6,645.5c-0.8,0-1.5,0.7-1.5,1.5l0,0v5.5c0,0.8,0.7,1.5,1.5,1.5c0.8,0,1.5-0.7,1.5-1.5V647
			C386.1,646.2,385.5,645.5,384.6,645.5z"/>
		<path class="st1" d="M146.9,640.1h-12.3v-10.4c0-0.8-0.6-1.4-1.4-1.4h-6.4v-20.7c0,0,0-0.1,0-0.1l0,0v-0.1l0,0
			c0-0.1,0-0.1-0.1-0.2l0,0l-9.8-23v-7.1c0-0.8-0.7-1.5-1.5-1.5c-0.8,0-1.5,0.7-1.5,1.5v7.3l-9.8,22.4l0,0l-0.1,0.2l0,0
			c0,0,0,0.1,0,0.1l0,0c0,0,0,0.1,0,0.1c0,0,0,0.2,0,0.3v20.8h-6.4c-0.8,0-1.4,0.6-1.4,1.4v10.4H82.9c-0.8,0-1.4,0.6-1.4,1.4v56.1
			c0,0.8,0.6,1.4,1.4,1.4h64c0.8,0,1.4-0.6,1.4-1.4v-56.1C148.3,640.8,147.6,640.1,146.9,640.1z M96.2,696.2H84.4v-53.1h11.8V696.2z
			 M123.3,606.7h-2.1l-1.9-9L123.3,606.7z M115.4,592.5l2.9,14.2h-5.9L115.4,592.5z M111.5,597.5l-2,9.2h-2.2L111.5,597.5z
			 M106,608.7h17.7v19.7H106V608.7z M119.8,696.2h-8.8v-14.7h8.8V696.2z M131.6,641.4v54.8h-8.8v-16.3c0-0.8-0.6-1.4-1.4-1.4h-11.9
			c-0.8,0-1.4,0.6-1.4,1.4v16.3h-8.8v-64.9h31.5L131.6,641.4z M146.3,696.2h-11.8v-53.1h11.8L146.3,696.2z"/>
		<path class="st1" d="M108.5,634.2h-5.9c-0.8,0-1.4,0.6-1.4,1.4v10.9c0,0.8,0.6,1.4,1.4,1.4h6c0.8,0,1.4-0.6,1.4-1.4v-10.9
			C109.9,634.9,109.3,634.2,108.5,634.2L108.5,634.2z M107,645.1h-2.9v-7.9h2.9V645.1z"/>
		<path class="st1" d="M118.3,634.2h-5.9c-0.8,0-1.4,0.6-1.4,1.4l0,0v10.9c0,0.8,0.6,1.4,1.4,1.5c0,0,0,0,0,0h6
			c0.8,0,1.4-0.6,1.4-1.4v-10.9C119.8,634.9,119.1,634.3,118.3,634.2C118.3,634.2,118.3,634.2,118.3,634.2z M116.8,645.1h-2.9v-7.9
			h2.9V645.1z"/>
		<path class="st1" d="M118.3,611.6h-5.9c-0.8,0-1.5,0.6-1.5,1.4c0,0,0,0,0,0v10.9c0,0.8,0.6,1.4,1.4,1.5c0,0,0,0,0,0h6
			c0.8,0,1.4-0.6,1.4-1.4v-10.9C119.8,612.3,119.2,611.7,118.3,611.6C118.3,611.6,118.3,611.6,118.3,611.6z M116.8,622.5h-2.9v-7.9
			h2.9V622.5z"/>
		<path class="st1" d="M120.8,635.7v10.9c0,0.8,0.6,1.4,1.4,1.4h5.9c0.8,0,1.5-0.6,1.5-1.4l0,0v-10.9c0-0.8-0.6-1.4-1.4-1.4h-5.9
			C121.4,634.2,120.8,634.9,120.8,635.7L120.8,635.7z M123.7,637.2h2.9v7.9h-2.9L123.7,637.2z"/>
		<path class="st1" d="M102.5,651.1c-0.8,0-1.4,0.6-1.4,1.4v6.7c0,0.8,0.7,1.5,1.5,1.5c0.8,0,1.5-0.7,1.5-1.5l0,0v-6.7
			C104.1,651.7,103.4,651.1,102.5,651.1L102.5,651.1z"/>
		<path class="st1" d="M107.4,651c-0.8,0-1.4,0.6-1.4,1.4v6.5c-0.1,0.8,0.5,1.5,1.4,1.5c0.8,0.1,1.5-0.5,1.6-1.3c0-0.1,0-0.2,0-0.2
			v-6.5C109,651.6,108.3,651,107.4,651L107.4,651z"/>
		<path class="st1" d="M112.4,651.1c-0.8,0-1.4,0.6-1.4,1.4v6.7c0,0.8,0.7,1.5,1.5,1.5c0.8,0,1.5-0.7,1.5-1.5l0,0v-6.7
			C113.9,651.7,113.2,651.1,112.4,651.1L112.4,651.1z"/>
		<path class="st1" d="M117.3,651c-0.8,0-1.4,0.6-1.4,1.4v6.5c-0.1,0.8,0.5,1.5,1.4,1.5c0.8,0.1,1.5-0.5,1.6-1.3c0-0.1,0-0.2,0-0.2
			v-6.5C118.8,651.6,118.1,651,117.3,651L117.3,651z"/>
		<path class="st1" d="M122.2,651c-0.8,0-1.4,0.6-1.4,1.4v6.5c0,0.8,0.7,1.4,1.5,1.4c0.8,0,1.5-0.6,1.5-1.4l0,0v-6.5
			c0-0.8-0.6-1.4-1.4-1.4L122.2,651z"/>
		<path class="st1" d="M127.2,651.1c-0.8,0-1.5,0.6-1.5,1.4c0,0,0,0,0,0v6.7c-0.1,0.8,0.5,1.5,1.4,1.6c0.8,0.1,1.5-0.5,1.6-1.4
			c0-0.1,0-0.2,0-0.2v-6.7C128.6,651.7,128,651.1,127.2,651.1z"/>
		<path class="st1" d="M102.6,661.8c-0.8,0-1.5,0.7-1.5,1.5v6.7c0,0.8,0.7,1.5,1.5,1.5c0.8,0,1.5-0.7,1.5-1.5v-6.7
			C104.1,662.5,103.4,661.8,102.6,661.8L102.6,661.8z"/>
		<path class="st1" d="M107.4,661.8c-0.8,0-1.4,0.6-1.4,1.4v6.5c-0.1,0.8,0.5,1.5,1.4,1.5c0.8,0.1,1.5-0.5,1.6-1.3
			c0-0.1,0-0.2,0-0.2v-6.5C109,662.4,108.3,661.8,107.4,661.8L107.4,661.8z"/>
		<path class="st1" d="M112.4,661.8c-0.8,0-1.5,0.7-1.5,1.5v6.7c0,0.8,0.7,1.5,1.5,1.5c0.8,0,1.5-0.7,1.5-1.5v-6.7
			C113.9,662.5,113.2,661.8,112.4,661.8L112.4,661.8z"/>
		<path class="st1" d="M117.3,661.8c-0.8,0-1.4,0.6-1.4,1.4v6.5c-0.1,0.8,0.5,1.5,1.4,1.5c0.8,0.1,1.5-0.5,1.6-1.3
			c0-0.1,0-0.2,0-0.2v-6.5C118.8,662.4,118.1,661.8,117.3,661.8L117.3,661.8z"/>
		<path class="st1" d="M122.2,661.8c-0.8,0-1.5,0.7-1.5,1.5v6.7c0,0.8,0.7,1.5,1.5,1.5s1.5-0.7,1.5-1.5v-6.7
			C123.7,662.5,123,661.8,122.2,661.8L122.2,661.8z"/>
		<path class="st1" d="M128.1,661.8c-0.8,0-1.5,0.7-1.5,1.5c0,0,0,0,0,0v6.7c-0.1,0.8,0.5,1.5,1.4,1.6c0.8,0.1,1.5-0.5,1.6-1.4
			c0-0.1,0-0.2,0-0.2v-6.7C129.6,662.5,128.9,661.8,128.1,661.8z"/>
		<path class="st1" d="M87.8,656.2c0.8,0,1.5-0.7,1.5-1.5V648c0-0.8-0.7-1.5-1.5-1.5c-0.8,0-1.5,0.7-1.5,1.5v6.7
			C86.4,655.5,87,656.2,87.8,656.2L87.8,656.2z"/>
		<path class="st1" d="M92.7,656.2c0.8,0,1.5-0.7,1.5-1.5V648c0-0.8-0.7-1.5-1.5-1.5c-0.8,0-1.5,0.7-1.5,1.5v6.7
			C91.3,655.5,91.9,656.2,92.7,656.2L92.7,656.2z"/>
		<path class="st1" d="M87.8,667.8c0.8,0,1.5-0.7,1.5-1.5v-6.7c0-0.8-0.7-1.5-1.5-1.5c-0.8,0-1.5,0.7-1.5,1.5v6.7
			C86.4,667.1,87,667.8,87.8,667.8z"/>
		<path class="st1" d="M92.7,667.8c0.8,0,1.5-0.7,1.5-1.5v-6.7c0-0.8-0.7-1.5-1.5-1.5c-0.8,0-1.5,0.7-1.5,1.5v6.7
			C91.3,667.1,91.9,667.8,92.7,667.8z"/>
		<path class="st1" d="M138,655.9c0.8,0,1.4-0.6,1.4-1.4V648c0.1-0.8-0.5-1.5-1.4-1.5s-1.5,0.5-1.6,1.3c0,0.1,0,0.2,0,0.2v6.4
			C136.5,655.2,137.1,655.9,138,655.9L138,655.9z"/>
		<path class="st1" d="M142.9,656.2c0.8,0,1.5-0.7,1.5-1.5V648c0-0.8-0.7-1.5-1.5-1.5s-1.5,0.7-1.5,1.5c0,0,0,0,0,0v6.7
			C141.4,655.5,142.1,656.2,142.9,656.2z"/>
		<path class="st1" d="M138,667.8c0.8,0,1.5-0.7,1.5-1.5v-6.7c-0.1-0.8-0.8-1.4-1.6-1.4c-0.7,0.1-1.3,0.6-1.4,1.4v6.7
			C136.5,667.1,137.1,667.8,138,667.8z"/>
		<path class="st1" d="M142.9,667.8c0.8,0,1.5-0.7,1.5-1.5v-6.7c0-0.8-0.7-1.5-1.5-1.5c-0.8,0-1.5,0.7-1.5,1.5v6.7
			C141.4,667.1,142.1,667.8,142.9,667.8z"/>
		<path class="st1" d="M324.9,657.8c-0.4,0.1-9.2,2.3-12.4,10.9c-0.9,2.7-1.3,5.5-1,8.3c-1,1.5-2,4.6-2,4.6v-13.6
			c0,0,0.7-1.1,1.5-1.8c2.1-2,3.4-4.7,3.3-7.6c0-6.6-5.8-14.5-6.1-14.9c-0.3-0.4-0.7-0.6-1.1-0.6c-0.5,0-0.9,0.2-1.1,0.6
			c-0.2,0.3-6,8.2-6,14.9c0,2.9,1.2,5.7,3.3,7.6c0.7,0.7,2.3,1.8,2.3,1.8v13.5c0,0-1.8-3.1-2.8-4.6c0.3-2.8-0.1-5.7-1-8.3
			c-3.2-8.7-12-10.8-12.4-10.9c-0.8-0.2-1.5,0.3-1.7,1.1c-0.1,0.2-0.1,0.5,0,0.8c0.5,1.8,0.9,3.7,1.1,5.6c0,0.5,0,1.1,0.1,1.6
			c0,2.4,0.1,5,2.6,7.2c2.8,2.4,7,3.9,8.8,4.4c2.8,4,4.7,7.4,5.4,9.9c0,0.1,1,0.3,1,0.3v8.8c0,0-0.3,1.4,0.5,1.4
			c0.8,0,1.4-1.4,1.4-1.4v-8.8c0,0,0.1-0.2,0.1-0.3c0.7-2.5,2.5-5.9,5.4-9.9c1.7-0.5,6-2,8.7-4.4c2.5-2.1,2.5-4.8,2.6-7.2
			c0-0.6,0-1.1,0.1-1.6c0.2-1.9,0.5-3.7,1.1-5.6c0.2-0.8-0.3-1.5-1-1.7C325.2,657.7,325,657.7,324.9,657.8z M294.3,670.6
			c0,0,1.2,1.3,2.8,3.4c-1.3-0.6-2.6-1.4-3.7-2.3c-1.4-1.2-1.5-2.7-1.6-5.1c0-0.6,0-1.2-0.1-1.8c-0.1-1.2-0.3-2.3-0.5-3.5
			c3.7,1.6,6.6,4.6,8,8.3c0.4,1.1,0.7,2.3,0.8,3.5c-2-2.5-3.4-4.2-3.6-4.4c-0.5-0.6-1.4-0.8-2-0.3s-0.8,1.4-0.3,2
			C294.2,670.5,294.2,670.6,294.3,670.6z M307,656.8c-0.8,0-1.5,0.6-1.5,1.4c0,0,0,0,0,0v6.6c-2-1.4-3.1-3.6-3.1-6
			c0-2.3,1-5.3,2.8-8.6c0.6-1.1,1.2-2.1,1.7-2.8c0.5,0.7,1.1,1.7,1.7,2.8c1.9,3.4,2.9,6.4,2.9,8.7c0,2.3-1.1,4.6-3.1,6v-6.6
			C308.5,657.5,307.8,656.8,307,656.8L307,656.8L307,656.8z M322.7,664.7c0,0.6-0.1,1.2-0.1,1.8c0,2.3-0.2,3.8-1.6,5.1
			c-1.1,0.9-2.4,1.7-3.7,2.3c1.6-2,2.8-3.3,2.8-3.4c0.5-0.6,0.5-1.5-0.1-2c-0.6-0.5-1.5-0.5-2,0.1c0,0,0,0-0.1,0.1
			c-0.2,0.2-1.7,2-3.6,4.4c0.4-4.5,3-8.6,6.9-10.8c0.6-0.4,1.2-0.7,1.9-1C322.9,662.4,322.7,663.5,322.7,664.7L322.7,664.7z"/>
		<path class="st1" d="M280.9,668.9c0.2-1.9,0.5-3.7,1.1-5.6c0.2-0.5,0-1-0.3-1.4c-0.4-0.4-0.9-0.5-1.4-0.4
			c-0.4,0.1-9.2,2.3-12.4,10.9c-0.9,2.7-1.3,5.5-1,8.3c-1,1.5-3.6,4.6-3.6,4.6v-15c0,0,0.7-0.2,0.8-0.3c0.7-2.5,2.5-5.9,5.4-9.9
			c1.7-0.5,6-2,8.7-4.4c2.5-2.1,2.5-4.8,2.6-7.2c0-0.6,0-1.1,0.1-1.6c0.2-1.9,0.5-3.7,1.1-5.6c0.2-0.5,0-1-0.3-1.4
			c-0.4-0.4-0.9-0.5-1.4-0.4c-0.4,0.1-9.2,2.3-12.4,10.9c-0.9,2.7-1.3,5.5-1,8.3c-1,1.5-2.5,4.6-2.5,4.6V650c0,0,1.3-1.1,2-1.8
			c2.1-2,3.4-4.7,3.3-7.6c0-6.6-5.8-14.5-6.1-14.8c-0.3-0.4-0.7-0.6-1.1-0.6c-0.5,0-0.9,0.2-1.1,0.6c-0.2,0.3-6.1,8.2-6.1,14.8
			c0,2.9,1.2,5.7,3.3,7.6c0.7,0.7,1.7,1.8,1.7,1.8v13.5c0,0-1.2-3.1-2.3-4.6c0.3-2.8-0.1-5.7-1-8.3c-3.2-8.6-12-10.8-12.4-10.9
			c-0.5-0.1-1,0-1.4,0.4c-0.3,0.4-0.5,0.9-0.3,1.4c0.5,1.8,0.9,3.7,1.1,5.6c0,0.5,0,1,0.1,1.6c0,2.3,0.1,5,2.6,7.2
			c2.8,2.4,7,3.9,8.7,4.4c2.9,4,4.7,7.4,5.4,9.9c0,0.1,0.5,0.3,0.5,0.3v15c0,0-2.3-3.1-3.3-4.6c0.3-2.8-0.1-5.7-1-8.3
			c-3.2-8.6-12-10.8-12.4-10.9c-0.5-0.1-1,0-1.4,0.4c-0.3,0.4-0.5,0.9-0.3,1.4c0.5,1.8,0.9,3.7,1.1,5.6c0,0.5,0,1,0.1,1.6
			c0,2.3,0.1,5,2.6,7.2c2.8,2.4,7,3.9,8.7,4.4c2.9,4,4.7,7.4,5.4,9.9c0,0.1,0.5,0.3,0.5,0.3v4.9c-0.1,0.8,0.5,1.5,1.4,1.6
			s1.5-0.5,1.6-1.4c0-0.1,0-0.2,0-0.2v-4.9c0,0-0.4-0.2-0.4-0.3c0.7-2.5,2.5-5.9,5.4-9.9c1.7-0.5,6-2,8.7-4.4
			c2.5-2.1,2.5-4.8,2.6-7.2C280.8,669.9,280.8,669.4,280.9,668.9z M270.5,651.6c1.2-3.1,3.3-5.6,6.2-7.3c0.6-0.4,1.2-0.7,1.9-1
			c-0.2,1.2-0.4,2.3-0.5,3.5c0,0.6-0.1,1.2-0.1,1.8c0,2.3-0.1,3.8-1.6,5.1c-1.1,0.9-2.4,1.7-3.7,2.2c1.6-2,2.8-3.3,2.8-3.4
			c0.5-0.6,0.4-1.5-0.2-2c-0.6-0.5-1.4-0.4-1.9,0.1c-0.2,0.2-1.7,2-3.6,4.4C269.8,653.9,270.1,652.7,270.5,651.6z M249.6,652.6
			c0,0,1.2,1.4,2.8,3.4c-1.3-0.6-2.6-1.4-3.7-2.3c-1.4-1.2-1.5-2.7-1.6-5.1c0-0.6,0-1.2-0.1-1.8c-0.1-1.2-0.3-2.3-0.5-3.5
			c0.6,0.3,1.3,0.6,1.9,1c3.9,2.2,6.5,6.3,6.9,10.8c-2-2.5-3.4-4.2-3.6-4.4c-0.5-0.6-1.4-0.6-2-0.1
			C249.1,651.1,249.1,652,249.6,652.6L249.6,652.6z M249.5,674.5c0,0,1.2,1.3,2.8,3.4c-1.3-0.6-2.6-1.4-3.7-2.3
			c-1.4-1.2-1.5-2.7-1.6-5.1c0-0.6,0-1.2-0.1-1.8c-0.1-1.2-0.3-2.3-0.5-3.5c0.6,0.3,1.3,0.6,1.9,1c3.9,2.2,6.5,6.3,6.9,10.8
			c-2-2.5-3.4-4.2-3.6-4.4c-0.5-0.6-1.4-0.6-2-0.1C249.1,672.9,249,673.8,249.5,674.5L249.5,674.5z M262.7,638.6
			c-0.8,0-1.4,0.6-1.4,1.4l0,0.1v6.9c-2-1.5-3.1-3.8-3.1-6.3c0-2.4,1-5.6,2.8-9.1c0.6-1.2,1.2-2.2,1.7-3c0.5,0.8,1.1,1.8,1.7,2.9
			c1.9,3.5,2.9,6.7,2.9,9.1c0,2.5-1.1,4.8-3.1,6.3v-6.9C264.3,639.4,263.6,638.7,262.7,638.6L262.7,638.6z M278,668.7
			c0,0.6-0.1,1.2-0.1,1.8c0,2.3-0.1,3.8-1.6,5.1c-1.1,0.9-2.4,1.7-3.7,2.3c1.6-2,2.8-3.4,2.8-3.4c0.5-0.6,0.4-1.5-0.1-2
			c-0.6-0.5-1.5-0.4-2,0.1c-0.2,0.2-1.7,2-3.6,4.4c0.4-4.5,3-8.5,6.9-10.8c0.6-0.4,1.2-0.7,1.9-1C278.3,666.4,278.1,667.5,278,668.7
			z"/>
		<path class="st1" d="M286.4,673L286.4,673c-0.5,0-0.9,0.2-1.2,0.6c-0.2,0.3-4.7,7-4.7,12.1c0,2.9,1.7,5.6,4.4,6.7v5.3
			c0,0.8,0.7,1.5,1.5,1.5l0,0c0.8,0,1.5-0.7,1.5-1.5v-5.1c2.8-1.1,4.7-3.9,4.6-6.9c0-5.1-4.6-11.7-4.8-12
			C287.4,673.3,286.9,673,286.4,673z M286.9,689l1,0.1v-2.2c0-0.8-0.7-1.5-1.5-1.5l0,0l0,0c-0.8,0-1.5,0.7-1.5,1.5v0v2
			c-1-0.8-1.5-1.9-1.5-3.1c0-2.5,1.6-5.9,2.9-8.1c1.3,2.3,2.9,5.6,2.9,8.1C289.3,686.9,286.9,689,286.9,689L286.9,689z"/>
		<path class="st1" d="M225.4,648h-36.3c-3,0-5.5,2.6-5.5,5.9v4.9h-8c-2,0-3.8,1.8-4.5,3.6l-6.1,14.8c-0.1,0.2-0.1,0.4-0.1,0.6v-2.1
			l0,0v8.6c-1.8,0.4-3,2.2-2.7,4c0.3,1.6,1.7,2.8,3.3,2.8h1c1,5,5.9,8.2,10.8,7.2c3.5-0.8,6.3-3.6,7-7.2h23.1c1,5,5.9,8.2,10.8,7.2
			c3.5-0.8,6.3-3.6,7-7.2h2c1.9,0,3.4-1.5,3.4-3.4v-34.5C230.8,650.4,228.4,648,225.4,648L225.4,648z M166,688.3h-0.8
			c-0.3,0.2-0.6,0-0.6-0.3s0.3-0.6,0.6-0.6h1C166.1,687.8,166.1,688.1,166,688.3z M175.2,695.8c-3.5,0-6.4-2.9-6.4-6.4
			c0-3.5,2.9-6.4,6.4-6.4c3.5,0,6.4,2.9,6.4,6.4C181.6,693,178.7,695.8,175.2,695.8z M182.7,684.4L182.7,684.4
			c-2.8-4.4-8.5-5.7-12.9-2.9c-1.1,0.7-2.1,1.7-2.8,2.8V676l5.9-13.6l0,0c0.3-0.8,1.2-1.6,1.9-1.6h7.9L182.7,684.4z M207.4,688.3
			h-23c0-0.2-0.1-0.5-0.2-1h23.4C207.5,687.8,207.4,688.1,207.4,688.3L207.4,688.3z M216.6,696.2c-3.6,0-6.4-2.9-6.4-6.5
			c0-3.4,2.9-6.2,6.3-6.3c3.6,0,6.5,2.8,6.5,6.4C223,693.3,220.1,696.1,216.6,696.2L216.6,696.2z M228.3,688c0,0.3-0.3,0.6-0.6,0.3
			l0,0h-2c0-0.1-0.1-0.5-0.2-1h2.7L228.3,688z M227.9,684.4H224c-2.7-4.3-8.4-5.6-12.7-2.9c-1.2,0.7-2.1,1.7-2.9,2.9h-22.8v-24.5
			c0-0.1,0-0.2,0-0.4c0-0.1,0-0.2,0-0.4v-5.7c0-1.4,1.1-2.6,2.6-2.6l0,0h37.1c1.4,0,2.6,1.2,2.6,2.6l0,0L227.9,684.4z"/>
		<path class="st1" d="M175.4,661.8c-0.5,0-0.9,0.3-1.2,0.7c-0.1,0.2-0.3,0.5-0.4,0.7l-5.4,12.3c-0.2,0.4-0.1,1,0.1,1.4
			c0.3,0.4,0.7,0.7,1.2,0.7h10.5c0.8,0,1.4-0.6,1.4-1.4v-12.9c0-0.8-0.6-1.4-1.4-1.4H175.4z M176.3,664.7h2.4v9.8H172L176.3,664.7z"
			/>
		<path class="st1" d="M216.6,685.7c-2.1,0-3.8,1.7-3.8,3.8s1.7,3.8,3.8,3.8s3.8-1.7,3.8-3.8C220.4,687.4,218.7,685.7,216.6,685.7z
			 M216.6,690.4c-0.5,0-0.9-0.4-0.9-0.9s0.4-0.9,0.9-0.9c0.5,0,0.9,0.4,0.9,0.9l0,0C217.5,690,217.1,690.4,216.6,690.4z"/>
		<path class="st1" d="M175.2,685.7c-2.1,0-3.8,1.7-3.8,3.8s1.7,3.8,3.8,3.8s3.8-1.7,3.8-3.8C179,687.4,177.3,685.7,175.2,685.7z
			 M175.2,690.4c-0.5,0-0.9-0.4-0.9-0.9s0.4-0.9,0.9-0.9s0.9,0.4,0.9,0.9l0,0C176.1,690,175.7,690.4,175.2,690.4z"/>
		<path class="st1" d="M141.2,604.8h1.2v1.2c0,0.8,0.7,1.5,1.5,1.5c0.8,0,1.5-0.7,1.5-1.5v-1.2h1.2c0.8,0.1,1.5-0.5,1.6-1.4
			c0.1-0.8-0.5-1.5-1.3-1.6c-0.1,0-0.2,0-0.2,0h-1.2v-1.2c0-0.8-0.7-1.5-1.5-1.5c-0.8,0-1.5,0.7-1.5,1.5v1.2h-1.2
			c-0.8-0.1-1.5,0.5-1.6,1.4s0.5,1.5,1.3,1.6C141,604.8,141.1,604.8,141.2,604.8z"/>
		<path class="st1" d="M292.2,623.4c0.8,0,1.5-0.6,1.5-1.4c0,0,0,0,0-0.1v-0.4h0.4c0.8,0,1.5-0.7,1.5-1.5s-0.7-1.5-1.5-1.5h-0.4
			v-0.4c0.1-0.8-0.5-1.5-1.4-1.6c-0.8-0.1-1.5,0.5-1.6,1.3c0,0.1,0,0.2,0,0.2v0.4h-0.4c-0.8,0-1.5,0.7-1.5,1.5s0.7,1.5,1.5,1.5h0.4
			v0.4C290.8,622.7,291.4,623.3,292.2,623.4z"/>
		<path class="st1" d="M327.9,618.8c-0.1-0.8-0.8-1.3-1.6-1.2c-0.6,0.1-1.1,0.6-1.2,1.2c-0.8,0.1-1.3,0.8-1.2,1.6
			c0.1,0.6,0.6,1.1,1.2,1.2c0.1,0.8,0.8,1.3,1.6,1.2c0.6-0.1,1.1-0.6,1.2-1.2c0.8-0.1,1.3-0.8,1.2-1.6
			C329.1,619.4,328.6,618.9,327.9,618.8z"/>
		<path class="st1" d="M32.5,600.3c0.1,0.8,0.8,1.3,1.6,1.2c0.6-0.1,1.1-0.6,1.2-1.2c0.8-0.1,1.3-0.8,1.2-1.6
			c-0.1-0.7-0.6-1.2-1.2-1.2c-0.1-0.8-0.8-1.3-1.6-1.2c-0.6,0.1-1.1,0.6-1.2,1.2c-0.8,0.1-1.3,0.8-1.2,1.6
			C31.4,599.7,31.9,600.2,32.5,600.3z"/>
		<path class="st1" d="M179.3,593.3c0.1,0.8,0.8,1.3,1.6,1.2c0.6-0.1,1.1-0.6,1.2-1.2c0.7-0.1,1.2-0.7,1.2-1.4
			c0-0.7-0.5-1.3-1.2-1.4c-0.1-0.8-0.8-1.3-1.6-1.2c-0.6,0.1-1.1,0.6-1.2,1.2c-0.7,0.1-1.2,0.7-1.2,1.4
			C178,592.6,178.6,593.2,179.3,593.3z"/>
		<path class="st1" d="M56.6,586.1h1.2v1.2c-0.1,0.8,0.5,1.5,1.4,1.6c0.8,0.1,1.5-0.5,1.6-1.4c0-0.1,0-0.2,0-0.2v-1.2H62
			c0.8,0.1,1.5-0.5,1.6-1.4c0.1-0.8-0.5-1.5-1.4-1.6c-0.1,0-0.2,0-0.2,0h-1.2v-1.2c0.1-0.8-0.5-1.5-1.4-1.6
			c-0.8-0.1-1.5,0.5-1.6,1.4c0,0.1,0,0.2,0,0.2v1.2h-1.2c-0.8-0.1-1.5,0.5-1.6,1.4c-0.1,0.8,0.5,1.5,1.4,1.6
			C56.5,586.1,56.5,586.1,56.6,586.1z"/>
		<path class="st1" d="M339.9,583v1c0,0,0.8,1.4,1.6,1.4s1.4-0.6,1.3-1.4v0v-0.8h1.1c0.8-0.1,1.5-0.7,1.5-1.5
			c0.1-0.8-0.5-1.5-1.3-1.5c-0.1,0-0.2-0.9-0.2-0.9h-1.1v-0.1c0.1-0.8-0.6-1.4-1.3-1.4s-1.4,0.6-1.6,1.4v0v1.1h-0.8
			c-0.8-0.1-1.5,0.4-1.5,1.2c-0.1,0.8,0.5,1.5,1.3,1.5c0.1,0,0.2,0,0.2,0L339.9,583z"/>
		<path class="st1" d="M281.9,599.8h14.8c0.8,0,1.5-0.7,1.5-1.5s-0.7-1.5-1.5-1.5h-14.8c-0.8,0-1.5,0.7-1.5,1.5
			S281.1,599.8,281.9,599.8z"/>
		<path class="st1" d="M302.7,599.8h7c0.8,0,1.5-0.7,1.5-1.5s-0.7-1.5-1.5-1.5h-7c-0.8,0-1.5,0.7-1.5,1.5S301.8,599.8,302.7,599.8z"
			/>
		<path class="st1" d="M306.5,603.3c0-0.8-0.7-1.5-1.5-1.5l0,0h-15.6c-0.8,0.1-1.4,0.8-1.4,1.6c0.1,0.7,0.6,1.3,1.4,1.4H305
			C305.8,604.8,306.5,604.1,306.5,603.3C306.5,603.3,306.5,603.3,306.5,603.3z"/>
		<path class="st1" d="M182.2,611.1c0,0.8,0.7,1.5,1.5,1.5h27.2c0.8,0,1.5-0.7,1.5-1.5s-0.7-1.5-1.5-1.5l0,0h-27.2
			C182.9,609.7,182.2,610.3,182.2,611.1z"/>
		<path class="st1" d="M187.8,615.6c-0.8-0.1-1.5,0.5-1.6,1.4c-0.1,0.8,0.5,1.5,1.4,1.6c0.1,0,0.2,0,0.2,0h15.6
			c0.8,0.1,1.5-0.5,1.6-1.4c0.1-0.8-0.5-1.5-1.4-1.6c-0.1,0-0.2,0-0.2,0H187.8z"/>
		<path class="st1" d="M199.5,607.7h8c0.8,0,1.5-0.7,1.5-1.5s-0.7-1.5-1.5-1.5h-8c-0.8,0-1.5,0.7-1.5,1.5S198.7,607.7,199.5,607.7z"
			/>
		<path class="st1" d="M189.3,607.7h4.1c0.8,0,1.5-0.7,1.5-1.5s-0.7-1.5-1.5-1.5h-4.1c-0.8,0-1.5,0.7-1.5,1.5
			S188.5,607.7,189.3,607.7L189.3,607.7z"/>
		<path class="st1" d="M93.6,581.6c0-0.8-0.6-1.4-1.4-1.4H81.4c-0.8,0-1.5,0.7-1.5,1.5c0,0.8,0.7,1.5,1.5,1.5h10.7
			C92.9,583.1,93.6,582.5,93.6,581.6L93.6,581.6z"/>
		<path class="st1" d="M67.7,575.3h27.2c0.8,0,1.5-0.7,1.5-1.5c0-0.8-0.7-1.5-1.5-1.5H67.7c-0.8,0-1.5,0.7-1.5,1.5
			C66.2,574.6,66.9,575.3,67.7,575.3z"/>
		<path class="st1" d="M88.3,577.7L88.3,577.7c0-0.8-0.7-1.5-1.5-1.5l0,0H71.9c-0.8-0.1-1.5,0.5-1.6,1.4c-0.1,0.8,0.5,1.5,1.4,1.6
			c0.1,0,0.2,0,0.2,0h15C87.7,579.2,88.3,578.6,88.3,577.7L88.3,577.7z"/>
		<path class="st1" d="M1020.9,591.8c0,0.7,0.5,1.3,1.2,1.4c0.1,0.8,0.8,1.3,1.6,1.2c0.7-0.1,1.2-0.6,1.2-1.2
			c0.7-0.1,1.2-0.7,1.2-1.4c0-0.7-0.5-1.3-1.2-1.4c-0.1-0.8-0.8-1.3-1.6-1.2c-0.7,0.1-1.2,0.6-1.2,1.2
			C1021.4,590.5,1020.9,591.1,1020.9,591.8z"/>
		<path class="st1" d="M1018.1,575.3L1018.1,575.3v0.4c0,0.8,0.7,1.5,1.5,1.5c0.8,0,1.5-0.7,1.5-1.5v-0.4h0.4c0.8,0,1.5-0.7,1.5-1.5
			c0-0.8-0.7-1.5-1.5-1.5h-0.4v-0.4c0-0.8-0.7-1.5-1.5-1.5c-0.8,0-1.5,0.7-1.5,1.5v0.4h-0.6c-0.8-0.1-1.4,0.6-1.4,1.4
			c0,0.8,0.6,1.4,2,1.4V575.3z"/>
		<path class="st1" d="M212.7,637.1c0.8,0,1.4-0.6,1.4-1.4v-0.5h0.4c0.8,0,1.5-0.7,1.5-1.5c0-0.8-0.7-1.5-1.5-1.5h-0.4v-0.4
			c0.1-0.8-0.5-1.5-1.4-1.6c-0.8-0.1-1.5,0.5-1.6,1.3c0,0.1,0,0.2,0,0.2v0.4h-0.4c-0.8,0-1.5,0.7-1.5,1.5c0,0.8,0.7,1.5,1.5,1.5h0.4
			v0.5c0,0.8,0.6,1.4,1.4,1.4L212.7,637.1z"/>
		<path class="st1" d="M261.6,593.9h0.7v0.3c-0.3,0.8,0.3,1.4,1.1,1.4s0.9-1.4,0.9-1.4v0v-0.3h1.3c0.8-0.4,1.4-1,1.4-1.8
			c0-0.8-0.6-1.4-1.4-1.1h-0.3v-0.7c0-0.8-0.7-1.5-1.5-1.5c-0.8,0-1.5,0.7-1.5,1.5c0,0,0,0,0,0v0.7h-0.7c-0.8,0-1.5,0.7-1.5,1.5
			S260.7,593.9,261.6,593.9L261.6,593.9z"/>
		<path class="st1" d="M919.8,575.3h1v0.4c-0.1,0.8,0.5,1.5,1.4,1.6c0.8,0.1,1.5-0.5,1.6-1.3c0-0.1,0-0.2,0-0.2v-0.4h0.4
			c0.8,0,1.5-0.7,1.5-1.5c0-0.8-0.7-1.5-1.5-1.5h-0.4v-0.5c0,0-0.8-1.5-1.5-1.5c-0.8-0.1-1.5,0.5-1.5,1.3c0,0.1,0,0.2,0.1,0.2v0.5
			h-0.5c-0.8-0.1-1.4,0.6-1.4,1.4s1.4,0.6,1.4,0.6h-0.5V575.3z"/>
		<path class="st1" d="M950,585.1h28.3c0.8,0,1.5-0.7,1.5-1.5c0-0.8-0.7-1.5-1.5-1.5H950c-0.8,0-1.5,0.7-1.5,1.5
			C948.5,584.4,949.1,585.1,950,585.1z"/>
		<path class="st1" d="M987,590c0.8,0,1.5-0.7,1.5-1.5c0-0.8-0.7-1.5-1.5-1.5h-20.3c-0.8,0-1.5,0.7-1.5,1.5s0.7,1.5,1.5,1.5
			c0,0,0,0,0,0H987z"/>
		<path class="st1" d="M520.2,625.4h5.1c0.8,0,1.4-0.6,1.4-1.4l0-0.1v-7.9c0-0.8-0.6-1.5-1.4-1.5c0,0,0,0,0,0h-5.1
			c-0.8,0-1.4,0.7-1.4,1.5v7.9C518.8,624.7,519.4,625.4,520.2,625.4z M521.7,617.5h2v4.9h-2V617.5z"/>
		<path class="st1" d="M530,625.4h5.1c0.8,0,1.4-0.7,1.4-1.5v-7.9c0-0.8-0.6-1.5-1.4-1.5l0,0h-5c-0.8,0-1.4,0.6-1.4,1.4v0v7.9
			C528.6,624.8,529.3,625.4,530,625.4L530,625.4z M531.6,617.5h2v4.9h-2V617.5z"/>
		<path class="st1" d="M540.8,625.4h5c0.8,0,1.4-0.6,1.4-1.4v0v-7.9c0-0.8-0.6-1.5-1.4-1.5l0,0h-5c-0.8,0-1.4,0.6-1.4,1.4v0v7.9
			C539.4,624.7,540.1,625.4,540.8,625.4L540.8,625.4z M542.4,617.5h2v4.9h-2V617.5z"/>
		<path class="st1" d="M550.7,625.4h5.1c0.8,0,1.4-0.7,1.4-1.5v-7.9c0-0.8-0.6-1.5-1.4-1.5l0,0h-5c-0.8,0-1.4,0.6-1.4,1.4v0v7.9
			C549.3,624.8,549.9,625.4,550.7,625.4L550.7,625.4z M552.2,617.5h2v4.9h-2V617.5z"/>
		<path class="st1" d="M560.1,616.1v7.9c0,0.8,0.6,1.5,1.4,1.5l0,0h5c0.8,0,1.4-0.6,1.4-1.4v0v-7.9c0-0.8-0.6-1.5-1.4-1.5l0,0h-5
			C560.7,614.6,560.1,615.2,560.1,616.1L560.1,616.1z M563,617.5h2v4.9h-2V617.5z"/>
		<path class="st1" d="M520.2,638.2h5.1c0.8,0,1.4-0.6,1.4-1.4c0,0,0,0,0,0v-7.9c0-0.8-0.6-1.5-1.4-1.5c0,0,0,0,0,0h-5.1
			c-0.8,0-1.4,0.7-1.4,1.5v7.9C518.8,637.5,519.4,638.2,520.2,638.2C520.2,638.2,520.2,638.2,520.2,638.2z M521.7,630.3h2v4.9h-2
			V630.3z"/>
		<path class="st1" d="M530,638.2h5.1c0.8,0,1.4-0.6,1.4-1.4v-7.9c0-0.8-0.6-1.5-1.4-1.5h0h-5.1c-0.8,0-1.4,0.6-1.4,1.4v0v7.9
			C528.6,637.5,529.2,638.2,530,638.2C530,638.2,530,638.2,530,638.2z M531.6,630.3h2v4.9h-2V630.3z"/>
		<path class="st1" d="M540.8,638.2h5.1c0.8,0,1.4-0.6,1.4-1.4c0,0,0,0,0,0v-7.9c0-0.8-0.6-1.5-1.4-1.5c0,0,0,0,0,0h-5
			c-0.8,0-1.4,0.6-1.4,1.4v0v7.9C539.4,637.5,540,638.2,540.8,638.2C540.8,638.2,540.8,638.2,540.8,638.2z M542.4,630.3h2v4.9h-2
			V630.3z"/>
		<path class="st1" d="M550.7,638.2h5.1c0.8,0,1.4-0.6,1.4-1.4v-7.9c0-0.8-0.6-1.5-1.4-1.5h0h-5.1c-0.8,0-1.4,0.6-1.4,1.4v0v7.9
			C549.3,637.5,549.9,638.2,550.7,638.2C550.6,638.2,550.7,638.2,550.7,638.2z M552.2,630.3h2v4.9h-2V630.3z"/>
		<path class="st1" d="M566.6,627.4h-5.1c-0.8,0-1.4,0.7-1.4,1.5l0,0v7.9c0,0.8,0.6,1.5,1.4,1.5c0,0,0,0,0,0h5.1
			c0.8,0,1.4-0.6,1.4-1.5c0,0,0,0,0,0v-7.9C567.9,628,567.3,627.4,566.6,627.4C566.6,627.4,566.6,627.4,566.6,627.4z M565,635.2h-2
			v-4.9h2V635.2z"/>
		<path class="st1" d="M520.2,663.7h5.1c0.8,0,1.4-0.6,1.4-1.4c0,0,0,0,0,0v-7.9c0-0.8-0.6-1.5-1.4-1.5c0,0,0,0,0,0h-5.1
			c-0.8,0-1.4,0.7-1.4,1.5v7.9C518.8,663.1,519.4,663.7,520.2,663.7z M521.7,655.9h2v4.9h-2V655.9z"/>
		<path class="st1" d="M535.1,663.7c0.8,0,1.4-0.6,1.4-1.5c0,0,0,0,0,0v-7.9c0-0.8-0.6-1.5-1.4-1.5l0,0H530c-0.8,0-1.4,0.7-1.4,1.5
			l0,0v7.9c0,0.8,0.6,1.5,1.4,1.5c0,0,0,0,0,0L535.1,663.7z M531.6,655.9h2v4.9h-2V655.9z"/>
		<path class="st1" d="M545.9,663.7c0.8,0,1.4-0.6,1.4-1.5c0,0,0,0,0,0v-7.9c0-0.8-0.6-1.5-1.4-1.5l0,0h-5.1c-0.8,0-1.4,0.7-1.4,1.5
			l0,0v7.9c0,0.8,0.6,1.5,1.4,1.5c0,0,0,0,0,0L545.9,663.7z M542.4,655.9h2v4.9h-2V655.9z"/>
		<path class="st1" d="M555.7,663.7c0.8,0,1.4-0.6,1.4-1.5c0,0,0,0,0,0v-7.9c0-0.8-0.6-1.5-1.4-1.5l0,0h-5.1c-0.8,0-1.4,0.7-1.4,1.5
			l0,0v7.9c0,0.8,0.6,1.5,1.4,1.5c0,0,0,0,0,0L555.7,663.7z M552.2,655.9h2v4.9h-2V655.9z"/>
		<path class="st1" d="M566.6,652.9h-5.1c-0.8,0-1.4,0.7-1.4,1.5l0,0v7.9c0,0.8,0.6,1.5,1.4,1.5c0,0,0,0,0,0h5.1
			c0.8,0,1.4-0.6,1.4-1.5c0,0,0,0,0,0v-7.9C567.9,653.6,567.3,652.9,566.6,652.9L566.6,652.9z M565,660.8h-2v-4.9h2V660.8z"/>
		<path class="st1" d="M525.3,678.5h-5.1c-0.8,0-1.4,0.7-1.4,1.5v7.9c0,0.8,0.6,1.5,1.4,1.5l0,0h5.1c0.8,0,1.4-0.6,1.4-1.4
			c0,0,0,0,0,0v-7.9C526.7,679.1,526.1,678.5,525.3,678.5C525.3,678.5,525.3,678.5,525.3,678.5z M523.7,686.3h-2v-4.9h2V686.3z"/>
		<path class="st1" d="M535.1,678.5H530c-0.8,0-1.4,0.7-1.4,1.5v0v7.9c0,0.8,0.6,1.5,1.4,1.5c0,0,0,0,0,0h5.1c0.8,0,1.4-0.6,1.4-1.5
			c0,0,0,0,0,0v-7.9C536.5,679.1,535.9,678.5,535.1,678.5L535.1,678.5z M533.5,686.3h-2v-4.9h2V686.3z"/>
		<path class="st1" d="M545.9,678.5h-5.1c-0.8,0-1.4,0.7-1.4,1.5v0v7.9c0,0.8,0.6,1.5,1.4,1.5c0,0,0,0,0,0h5.1
			c0.8,0,1.4-0.6,1.4-1.5c0,0,0,0,0,0v-7.9C547.3,679.1,546.7,678.5,545.9,678.5L545.9,678.5z M544.4,686.3h-2v-4.9h2V686.3z"/>
		<path class="st1" d="M555.7,678.5h-5.1c-0.8,0-1.4,0.7-1.4,1.5v0v7.9c0,0.8,0.6,1.5,1.4,1.5c0,0,0,0,0,0h5.1
			c0.8,0,1.4-0.6,1.4-1.5c0,0,0,0,0,0v-7.9C557.1,679.1,556.5,678.5,555.7,678.5L555.7,678.5z M554.2,686.3h-2v-4.9h2V686.3z"/>
		<path class="st1" d="M566.6,678.5h-5.1c-0.8,0-1.4,0.7-1.4,1.5v0v7.9c0,0.8,0.6,1.5,1.4,1.5c0,0,0,0,0,0h5.1
			c0.8,0,1.4-0.6,1.4-1.5c0,0,0,0,0,0v-7.9C567.9,679.1,567.3,678.5,566.6,678.5L566.6,678.5z M565,686.3h-2v-4.9h2V686.3z"/>
		<path class="st1" d="M567.5,640.1h-48.3c-0.8,0.1-1.4,0.8-1.4,1.6c0.1,0.7,0.6,1.3,1.4,1.4h48.3c0.8,0.1,1.5-0.5,1.6-1.4
			c0.1-0.8-0.5-1.5-1.4-1.6C567.6,640.1,567.5,640.1,567.5,640.1z"/>
		<path class="st1" d="M567.4,648h-48.1c-0.8,0-1.5,0.7-1.5,1.5s0.7,1.5,1.5,1.5h48.1c0.8,0,1.5-0.7,1.5-1.5S568.2,648,567.4,648z"
			/>
		<path class="st1" d="M567.4,644.1h-48.1c-0.8,0-1.5,0.7-1.5,1.5c0,0.8,0.7,1.5,1.5,1.5h48.1c0.8,0,1.5-0.7,1.5-1.5
			C568.9,644.7,568.2,644.1,567.4,644.1z"/>
		<path class="st1" d="M556.2,599.8h-25.9c-0.8,0-1.5,0.7-1.5,1.5s0.7,1.5,1.5,1.5h25.9c0.8,0,1.5-0.7,1.5-1.5
			S557.1,599.8,556.2,599.8z"/>
		<path class="st1" d="M556.3,602.8h-25.9c-0.8-0.1-1.5,0.5-1.6,1.4c-0.1,0.8,0.5,1.5,1.4,1.6c0.1,0,0.2,0,0.2,0h25.9
			c0.8,0.1,1.5-0.5,1.6-1.4c0.1-0.8-0.5-1.5-1.4-1.6C556.5,602.8,556.4,602.8,556.3,602.8z"/>
		<path class="st1" d="M567.5,665.7h-48.3c-0.8,0.1-1.4,0.8-1.4,1.6c0.1,0.7,0.6,1.3,1.4,1.4h48.3c0.8,0.1,1.5-0.5,1.6-1.4
			c0.1-0.8-0.5-1.5-1.4-1.6C567.6,665.7,567.5,665.7,567.5,665.7z"/>
		<path class="st1" d="M567.4,673.6h-48.1c-0.8,0-1.5,0.7-1.5,1.5s0.7,1.5,1.5,1.5h48.1c0.8,0,1.5-0.7,1.5-1.5
			S568.2,673.6,567.4,673.6z"/>
		<path class="st1" d="M567.4,669.6h-48.1c-0.8,0-1.5,0.7-1.5,1.5s0.7,1.5,1.5,1.5h48.1c0.8,0,1.5-0.7,1.5-1.5
			S568.2,669.6,567.4,669.6z"/>
		<path class="st1" d="M717.7,585.2l-1.6-0.2l0,0c-1.6-0.2-3.2-0.3-4.8-0.3c-5.6-0.1-11.1,1.5-15.9,4.4c-0.9,0.6-1.8,1.3-2.7,2
			v-21.2l0,0c0.8,0,1.4-0.6,1.4-1.4c0-0.2-0.1-0.5-0.2-0.7c-0.4-0.8-1-1.5-1.7-2.1l-0.1-0.1c-2.5-2.3-6.7-3.8-11.3-4.1l0,0h-0.5
			h-2.7h-0.5l0,0c-4.6,0.3-8.8,1.8-11.4,4.1l-0.1,0.1c-0.7,0.6-1.3,1.3-1.8,2.1c-0.4,0.7-0.1,1.5,0.6,1.9l0,0
			c0.2,0.1,0.5,0.2,0.7,0.2v0.1v21c-0.8-0.7-1.7-1.4-2.7-2c-4.8-2.9-10.3-4.5-15.9-4.4c-1.6,0-3.2,0.1-4.8,0.3l0,0l-1.6,0.2
			c-0.8,0.1-1.4,0.8-1.3,1.6c0.1,0.7,0.7,1.3,1.4,1.3h0.2v82.6h-3.9v-72.3c0-0.8-0.6-1.4-1.4-1.4l0,0h-8.4v-8.5
			c0-0.8-0.7-1.4-1.5-1.4l0,0H621v-7.5c0-0.8-0.7-1.4-1.5-1.4h-10.3v-10.3c0-0.8-0.7-1.4-1.5-1.4s-1.5,0.6-1.5,1.4v10.3h-10.4
			c-0.8,0-1.4,0.6-1.4,1.4c0,0,0-0.5,0-0.5v7.9H590c-0.8,0-1.4,0.6-1.4,1.4v0v8.4h-8.4c-0.8,0-1.4,0.6-1.4,1.4l0,0v72.3h-3.9v-61.5
			c0-0.8-0.6-1.4-1.4-1.4H563v-11.3c0-0.8-0.6-1.4-1.4-1.4c0,0,0.3,0,0.2,0h-6.8l-2.9-4.9v-9.6c0-0.4-0.1-0.7-0.4-1l-7.5-7.9v-5.1
			c0,0-0.2-1.5-0.9-1.5s-1.5,0.5-1.5,1.3c0,0.1,0.5,0.2,0.5,0.2v5.1l-7.5,7.9c-0.3,0.3-0.4,0.6-0.4,1v9.1c-0.1,0.1-0.1,0.2-0.2,0.2
			l-2.8,5.2h-6.5c-0.8,0-1.4,0.6-1.4,1.4c0,0,0,0,0,0v11.3h-10.4c-0.8,0-1.4,0.6-1.4,1.4v0.1v88.4c0,0.8,0.6,1.4,1.4,1.4l0,0h201.6
			c0.8,0,1.4-0.6,1.4-1.4v0V588.1h1.2c0.8,0,1.5-0.6,1.5-1.4C719,585.9,718.5,585.3,717.7,585.2L717.7,585.2z M544.4,575.9l4.9,5.2
			v8h-4.9V575.9z M544.4,592h5l1.7,2.9h-6.7L544.4,592z M537.5,581l4.9-5.2V589h-4.9V581z M537.1,592h5.3v2.9h-6.8L537.1,592z
			 M526.7,597.9h33.4v9.8h-33.4L526.7,597.9z M571.9,671.4v24.7h-58v-85.5h58V671.4z M627,599.8h6.8v9.8h-6.9L627,599.8z M627,612.6
			h7.7v2H627L627,612.6z M627,617.5h6.8v13.8h-6.9L627,617.5z M627,634.2h7.7v2H627L627,634.2z M627,638.2h6.8v13.8h-6.9L627,638.2z
			 M627,654.9h7.7v2H627L627,654.9z M627,659.8h6.8v9.8h-6.9L627,659.8z M597.4,581.2H619v5.9h-21.6V581.2z M591.5,590H624v6.9
			h-32.4V590z M615.1,656.8v-2h8.8v2H615.1z M624,659.8v9.8h-8.8v-9.8H624z M615.1,652v-13.8h8.8v13.8L615.1,652z M615.1,635.2v-2
			h8.8v2H615.1z M615.1,631.3v-13.8h8.8v13.8L615.1,631.3z M615.1,614.6v-2h8.8v2H615.1z M615.1,609.7v-9.8h8.8v9.8H615.1z
			 M603.3,656.8v-2h8.8v2H603.3z M612.2,659.8v9.8h-8.8v-9.8H612.2z M603.3,652v-13.8h8.8v13.8L603.3,652z M603.3,635.2v-2h8.8v2
			H603.3z M603.3,631.3v-13.8h8.8v13.8L603.3,631.3z M603.3,614.6v-2h8.8v2H603.3z M603.3,609.7v-9.8h8.8v9.8H603.3z M591.5,656.8
			v-2h8.8v2H591.5z M600.4,659.8v9.8h-8.8v-9.8H600.4z M591.5,652v-13.8h8.8v13.8L591.5,652z M591.5,635.2v-2h8.8v2H591.5z
			 M591.5,631.3v-13.8h8.8v13.8L591.5,631.3z M591.5,614.6v-2h8.8v2H591.5z M591.5,609.7v-9.8h8.8v9.8H591.5z M581.7,599.8h6.9v9.8
			h-6.9V599.8z M581.7,612.6h6.9v2h-6.9V612.6z M581.7,617.5h6.9v13.8h-6.9V617.5z M581.7,634.2h6.9v2h-6.9V634.2z M581.7,638.2h6.9
			v13.8h-6.9V638.2z M581.7,654.9h6.9v2h-6.9V654.9z M581.7,659.8h6.9v9.8h-6.9V659.8z M589.6,696.2h-7.9v-16.7h7.9V696.2z
			 M612.2,696.2h-7.9v-16.7h7.9V696.2z M634.8,696.2h-7.9v-16.7h7.9L634.8,696.2z M640.7,695.2h-3.9v-17.3c0-0.7-0.6-1.4-1.4-1.4
			h0.3h-10.3c-0.8,0-1.4,0.6-1.4,1.4l0,0v18.2h-8.8v-18.2c0-0.8-0.6-1.4-1.4-1.4h-11c-0.8,0-1.4,0.6-1.4,1.4l0,0v18.2h-8.8v-18.2
			c0-0.8-0.6-1.4-1.4-1.4c0,0,0.3,0,0.3,0h-11.3c-0.8,0-1.4,0.6-1.4,1.4l0,0v18.2h-3.9v-23.6h65.8V695.2z M665.2,696.2h-21.6V587.9
			c1.1-0.1,2.1-0.1,3.1-0.1c5-0.1,9.9,1.3,14.2,3.9c1.6,1,3.1,2.2,4.3,3.6V696.2z M689.8,594.5v101.7h-21.6v-7.7
			c0.3,0.5,0.8,0.8,1.3,0.8h2.3c0.8,0,1.5-0.7,1.5-1.5s-0.7-1.5-1.5-1.5h-2.3c-0.6,0-1.1,0.3-1.3,0.8v-8.5c0.3,0.5,0.8,0.8,1.3,0.8
			h2.3c0.8,0,1.5-0.7,1.5-1.5s-0.7-1.5-1.5-1.5h-2.3c-0.6,0-1.1,0.3-1.3,0.8v-8.5c0.2,0.5,0.8,0.8,1.3,0.8h2.3
			c0.8-0.1,1.4-0.8,1.4-1.6c-0.1-0.7-0.6-1.3-1.4-1.4h-2.3c-0.6,0-1.1,0.3-1.3,0.8V659c0.3,0.5,0.8,0.8,1.3,0.8h2.3
			c0.8,0,1.5-0.7,1.5-1.5s-0.7-1.5-1.5-1.5h-2.3c-0.6,0-1.1,0.3-1.3,0.8v-8.5c0.3,0.5,0.8,0.8,1.3,0.8h2.3c0.8,0,1.5-0.7,1.5-1.5
			c0-0.8-0.7-1.5-1.5-1.5h-2.3c-0.6,0-1.1,0.3-1.3,0.8v-8.5c0.2,0.5,0.8,0.8,1.3,0.8h2.3c0.8,0,1.5-0.7,1.5-1.5s-0.7-1.5-1.5-1.5
			h-2.3c-0.6,0-1.1,0.3-1.3,0.8v-8.5c0.3,0.5,0.8,0.8,1.3,0.8h2.3c0.8,0,1.5-0.7,1.5-1.5c0-0.8-0.7-1.5-1.5-1.5h-2.3
			c-0.6,0-1.1,0.3-1.3,0.8v-8.5c0.2,0.5,0.8,0.8,1.3,0.8h2.3c0.8-0.1,1.4-0.8,1.4-1.6c-0.1-0.7-0.6-1.3-1.4-1.4h-2.3
			c-0.6,0-1.1,0.3-1.3,0.8v-43.1h21.6L689.8,594.5z M688.2,572.3h-20v-4.8l0,0l0,0l0-0.2l0,0l0.3-0.2l0,0c0.5-0.3,1-0.6,1.5-0.8l0,0
			l0.4-0.2l0,0l0.4,0.2h0.1l0.2-0.5l0.2,0.5h0.1c0,0,4.2-1.7,6.4-2h1.9c2.2,0.3,6.4,2,6.4,2h0.1l0.2-0.5l0.2,0.5h-0.8l0.3,0.1l0,0
			l0.3,0.2l0,0c0.4,0.2,0.8,0.4,1.2,0.7l0,0l0.2,0.2l0,0l0.2,0.2l0,0l0,0L688.2,572.3z M713.4,696.2h-21.6v-101
			c1.3-1.5,7.4-7.4,18.5-7.4c1,0,2.1,0,3.1,0.1L713.4,696.2z"/>
		<path class="st1" d="M670.6,592h5c0.8,0,1.4-0.6,1.4-1.4c0,0,0,0,0,0v-10c0-0.8-0.6-1.4-1.4-1.4l0,0h-5c-0.8,0-1.4,0.6-1.4,1.4
			c0,0,0,0,0,0v10C669.2,591.4,669.8,592,670.6,592C670.6,592,670.6,592,670.6,592z M672.1,581.2h2v7.9h-2V581.2z"/>
		<path class="st1" d="M681.4,592h5.1c0.8,0,1.4-0.6,1.4-1.4l0,0v-10c0-0.8-0.6-1.4-1.4-1.4l0,0h-5.1c-0.8,0-1.4,0.6-1.4,1.4l0,0v10
			C680,591.4,680.6,592,681.4,592L681.4,592z M682.9,581.2h2v7.9h-2V581.2z"/>
		<path class="st1" d="M670.6,609.7h5c0.8,0,1.4-0.6,1.4-1.4c0,0,0,0,0,0v-10c0-0.8-0.6-1.4-1.4-1.4l0,0h-5c-0.8,0-1.4,0.6-1.4,1.4
			c0,0,0,0,0,0v10C669.2,609.1,669.8,609.7,670.6,609.7L670.6,609.7z M672.1,598.9h2v7.9h-2V598.9z"/>
		<path class="st1" d="M681.4,609.7h5c0.8,0,1.4-0.6,1.4-1.4c0,0,0,0,0,0v-10c0-0.8-0.6-1.4-1.4-1.4l0,0h-5c-0.8,0-1.4,0.6-1.4,1.4
			c0,0,0,0,0,0v10C680,609.1,680.6,609.7,681.4,609.7z M682.9,598.9h2v7.9h-2V598.9z"/>
		<path class="st1" d="M653.9,593.5c-0.8,0-1.5,0.6-1.5,1.4v98c0,0.8,0.7,1.4,1.5,1.4c0.8,0,1.5-0.6,1.5-1.4v-98
			C655.4,594.1,654.7,593.5,653.9,593.5z"/>
		<path class="st1" d="M674.6,612.9c-0.8,0-1.5,0.6-1.5,1.4c0,0,0,0,0,0v78.6c-0.1,0.8,0.5,1.5,1.4,1.5c0.8,0.1,1.5-0.5,1.6-1.3
			c0-0.1,0-0.2,0-0.2v-78.6C676.1,613.6,675.4,612.9,674.6,612.9L674.6,612.9z"/>
		<path class="st1" d="M704.1,593.5c-0.8,0-1.5,0.6-1.5,1.4v98c-0.1,0.8,0.5,1.5,1.4,1.5c0.8,0.1,1.5-0.5,1.6-1.3c0-0.1,0-0.2,0-0.2
			v-98C705.5,594.1,704.9,593.5,704.1,593.5z"/>
		<path class="st1" d="M675.8,619.1c0,0.8,0.6,1.4,1.4,1.4l0.1,0h2.3c0.8-0.1,1.4-0.8,1.4-1.6c-0.1-0.7-0.6-1.3-1.4-1.4h-2.4
			c-0.8,0-1.4,0.6-1.4,1.4V619.1z"/>
		<path class="st1" d="M685.4,617.5c-0.7,0-1.3,0.5-1.5,1.2v-7.1c0-0.8-0.7-1.5-1.5-1.5s-1.5,0.7-1.5,1.5v81.3
			c0,0.8,0.7,1.5,1.5,1.5s1.5-0.7,1.5-1.5v-4.8c0.1,0.7,0.7,1.2,1.5,1.2h2.3c0.8,0,1.5-0.7,1.5-1.5s-0.7-1.5-1.5-1.5l0,0h-2.3
			c-0.7,0-1.3,0.5-1.5,1.2v-9.3c0.1,0.7,0.7,1.2,1.5,1.2h2.3c0.8,0,1.5-0.7,1.5-1.5s-0.7-1.5-1.5-1.5l0,0h-2.3
			c-0.7,0-1.3,0.5-1.5,1.2v-9.3c0.1,0.7,0.7,1.2,1.5,1.2h2.3c0.8-0.1,1.4-0.8,1.4-1.6c-0.1-0.7-0.6-1.3-1.4-1.4h-2.3
			c-0.7,0-1.3,0.5-1.5,1.2v-9.3c0.1,0.7,0.7,1.2,1.5,1.2h2.3c0.8,0,1.5-0.7,1.5-1.5s-0.7-1.5-1.5-1.5l0,0h-2.3
			c-0.7,0-1.3,0.5-1.5,1.2v-9.3c0.1,0.7,0.7,1.2,1.5,1.2h2.3c0.8,0,1.5-0.7,1.5-1.5c0-0.8-0.7-1.5-1.5-1.5l0,0h-2.3
			c-0.7,0-1.3,0.5-1.5,1.2v-9.3c0.1,0.7,0.7,1.2,1.5,1.2h2.3c0.8,0,1.5-0.7,1.5-1.5s-0.7-1.5-1.5-1.5l0,0h-2.3
			c-0.7,0-1.3,0.5-1.5,1.2v-9.3c0.1,0.7,0.7,1.2,1.5,1.2h2.3c0.8,0,1.5-0.7,1.5-1.5c0-0.8-0.7-1.5-1.5-1.5l0,0h-2.3
			c-0.7,0-1.3,0.5-1.5,1.2v-9.3c0.1,0.7,0.7,1.2,1.5,1.2h2.3c0.8-0.1,1.4-0.8,1.4-1.6c-0.1-0.7-0.6-1.3-1.4-1.4H685.4z"/>
		<path class="st1" d="M679.6,627.4h-2.3c-0.8,0-1.5,0.7-1.5,1.5c0,0.8,0.7,1.5,1.5,1.5h2.3c0.8,0,1.5-0.7,1.5-1.5
			C681.1,628,680.5,627.4,679.6,627.4z"/>
		<path class="st1" d="M679.6,637.2h-2.3c-0.8,0-1.5,0.7-1.5,1.5s0.7,1.5,1.5,1.5h2.3c0.8,0,1.5-0.7,1.5-1.5
			S680.5,637.2,679.6,637.2z"/>
		<path class="st1" d="M679.6,647h-2.3c-0.8,0-1.5,0.7-1.5,1.5c0,0.8,0.7,1.5,1.5,1.5h2.3c0.8,0,1.5-0.7,1.5-1.5
			C681.1,647.7,680.5,647,679.6,647z"/>
		<path class="st1" d="M679.6,656.8h-2.3c-0.8,0-1.5,0.7-1.5,1.5s0.7,1.5,1.5,1.5h2.3c0.8,0,1.5-0.7,1.5-1.5
			S680.5,656.8,679.6,656.8z"/>
		<path class="st1" d="M679.6,666.7h-2.3c-0.8-0.1-1.5,0.5-1.6,1.4c-0.1,0.8,0.5,1.5,1.4,1.6c0.1,0,0.2,0,0.2,0h2.3
			c0.8-0.1,1.4-0.8,1.4-1.6C680.9,667.3,680.4,666.7,679.6,666.7z"/>
		<path class="st1" d="M679.6,676.5h-2.3c-0.8,0-1.5,0.7-1.5,1.5s0.7,1.5,1.5,1.5h2.3c0.8,0,1.5-0.7,1.5-1.5
			S680.5,676.5,679.6,676.5z"/>
		<path class="st1" d="M679.6,686.3h-2.3c-0.8,0-1.5,0.7-1.5,1.5s0.7,1.5,1.5,1.5h2.3c0.8,0,1.5-0.7,1.5-1.5
			S680.5,686.3,679.6,686.3z"/>
		<path class="st1" d="M651.3,597.9h-2.3c-0.8,0-1.5,0.7-1.5,1.5c0,0.8,0.7,1.5,1.5,1.5h2.3c0.8,0,1.5-0.7,1.5-1.5
			C652.7,598.5,652.1,597.9,651.3,597.9z"/>
		<path class="st1" d="M659.4,597.9h-2.3c-0.8,0-1.5,0.7-1.5,1.5c0,0.8,0.7,1.5,1.5,1.5h2.3c0.8,0,1.5-0.7,1.5-1.5
			C660.9,598.5,660.2,597.9,659.4,597.9z"/>
		<path class="st1" d="M651.3,607.7h-2.3c-0.8,0-1.5,0.7-1.5,1.5s0.7,1.5,1.5,1.5h2.3c0.8,0,1.5-0.7,1.5-1.5
			S652.1,607.7,651.3,607.7z"/>
		<path class="st1" d="M659.4,607.7h-2.3c-0.8,0-1.5,0.7-1.5,1.5s0.7,1.5,1.5,1.5h2.3c0.8,0,1.5-0.7,1.5-1.5
			S660.2,607.7,659.4,607.7z"/>
		<path class="st1" d="M651.3,617.5h-2.3c-0.8-0.1-1.5,0.5-1.6,1.4c-0.1,0.8,0.5,1.5,1.4,1.6c0.1,0,0.2,0,0.2,0h2.3
			c0.8,0.1,1.5-0.5,1.6-1.4s-0.5-1.5-1.4-1.6C651.4,617.5,651.3,617.5,651.3,617.5z"/>
		<path class="st1" d="M659.4,617.5h-2.3c-0.8-0.1-1.5,0.5-1.6,1.4c-0.1,0.8,0.5,1.5,1.4,1.6c0.1,0,0.2,0,0.2,0h2.3
			c0.8,0.1,1.5-0.5,1.6-1.4s-0.5-1.5-1.4-1.6C659.6,617.5,659.5,617.5,659.4,617.5z"/>
		<path class="st1" d="M651.3,627.4h-2.3c-0.8,0-1.5,0.7-1.5,1.5c0,0.8,0.7,1.5,1.5,1.5h2.3c0.8,0,1.5-0.7,1.5-1.5
			C652.7,628,652.1,627.4,651.3,627.4z"/>
		<path class="st1" d="M659.4,627.4h-2.3c-0.8,0-1.5,0.7-1.5,1.5c0,0.8,0.7,1.5,1.5,1.5h2.3c0.8,0,1.5-0.7,1.5-1.5
			C660.9,628,660.2,627.4,659.4,627.4z"/>
		<path class="st1" d="M651.3,637.2h-2.3c-0.8,0-1.5,0.7-1.5,1.5s0.7,1.5,1.5,1.5h2.3c0.8,0,1.5-0.7,1.5-1.5
			S652.1,637.2,651.3,637.2z"/>
		<path class="st1" d="M659.4,637.2h-2.3c-0.8,0-1.5,0.7-1.5,1.5s0.7,1.5,1.5,1.5h2.3c0.8,0,1.5-0.7,1.5-1.5
			S660.2,637.2,659.4,637.2z"/>
		<path class="st1" d="M651.3,647h-2.3c-0.8,0-1.5,0.7-1.5,1.5c0,0.8,0.7,1.5,1.5,1.5h2.3c0.8,0,1.5-0.7,1.5-1.5
			C652.7,647.7,652.1,647,651.3,647z"/>
		<path class="st1" d="M659.4,647h-2.3c-0.8,0-1.5,0.7-1.5,1.5c0,0.8,0.7,1.5,1.5,1.5h2.3c0.8,0,1.5-0.7,1.5-1.5
			C660.9,647.7,660.2,647,659.4,647z"/>
		<path class="st1" d="M651.3,656.8h-2.3c-0.8,0-1.5,0.7-1.5,1.5s0.7,1.5,1.5,1.5h2.3c0.8,0,1.5-0.7,1.5-1.5
			S652.1,656.8,651.3,656.8z"/>
		<path class="st1" d="M659.4,656.8h-2.3c-0.8,0-1.5,0.7-1.5,1.5s0.7,1.5,1.5,1.5h2.3c0.8,0,1.5-0.7,1.5-1.5
			S660.2,656.8,659.4,656.8z"/>
		<path class="st1" d="M651.3,666.7h-2.3c-0.8-0.1-1.5,0.5-1.6,1.4c-0.1,0.8,0.5,1.5,1.4,1.6c0.1,0,0.2,0,0.2,0h2.3
			c0.8,0.1,1.5-0.5,1.6-1.4c0.1-0.8-0.5-1.5-1.4-1.6C651.4,666.7,651.3,666.7,651.3,666.7z"/>
		<path class="st1" d="M659.4,666.7h-2.3c-0.8-0.1-1.5,0.5-1.6,1.4c-0.1,0.8,0.5,1.5,1.4,1.6c0.1,0,0.2,0,0.2,0h2.3
			c0.8,0.1,1.5-0.5,1.6-1.4c0.1-0.8-0.5-1.5-1.4-1.6C659.6,666.7,659.5,666.7,659.4,666.7z"/>
		<path class="st1" d="M651.3,676.5h-2.3c-0.8,0-1.5,0.7-1.5,1.5s0.7,1.5,1.5,1.5h2.3c0.8,0,1.5-0.7,1.5-1.5
			S652.1,676.5,651.3,676.5z"/>
		<path class="st1" d="M659.4,676.5h-2.3c-0.8,0-1.5,0.7-1.5,1.5s0.7,1.5,1.5,1.5h2.3c0.8,0,1.5-0.7,1.5-1.5
			S660.2,676.5,659.4,676.5z"/>
		<path class="st1" d="M651.3,686.3h-2.3c-0.8,0-1.5,0.7-1.5,1.5s0.7,1.5,1.5,1.5h2.3c0.8,0,1.5-0.7,1.5-1.5
			S652.1,686.3,651.3,686.3z"/>
		<path class="st1" d="M659.4,686.3h-2.3c-0.8,0-1.5,0.7-1.5,1.5s0.7,1.5,1.5,1.5h2.3c0.8,0,1.5-0.7,1.5-1.5
			S660.2,686.3,659.4,686.3z"/>
		<path class="st1" d="M700.6,597.9h-2.3c-0.8,0-1.5,0.7-1.5,1.5c0,0.8,0.7,1.5,1.5,1.5h2.3c0.8,0,1.5-0.7,1.5-1.5
			C702.1,598.5,701.5,597.9,700.6,597.9z"/>
		<path class="st1" d="M708.8,597.9h-2.3c-0.8,0-1.5,0.7-1.5,1.5c0,0.8,0.7,1.5,1.5,1.5h2.3c0.8,0,1.5-0.7,1.5-1.5
			C710.3,598.5,709.6,597.9,708.8,597.9z"/>
		<path class="st1" d="M700.6,607.7h-2.3c-0.8,0-1.5,0.7-1.5,1.5s0.7,1.5,1.5,1.5h2.3c0.8,0,1.5-0.7,1.5-1.5
			S701.5,607.7,700.6,607.7z"/>
		<path class="st1" d="M708.8,607.7h-2.3c-0.8,0-1.5,0.7-1.5,1.5s0.7,1.5,1.5,1.5h2.3c0.8,0,1.5-0.7,1.5-1.5
			S709.6,607.7,708.8,607.7z"/>
		<path class="st1" d="M700.6,617.5h-2.3c-0.8-0.1-1.5,0.5-1.6,1.4c-0.1,0.8,0.5,1.5,1.4,1.6c0.1,0,0.2,0,0.2,0h2.3
			c0.8-0.1,1.4-0.8,1.4-1.6C701.9,618.2,701.4,617.6,700.6,617.5z"/>
		<path class="st1" d="M708.8,617.5h-2.3c-0.8-0.1-1.5,0.5-1.6,1.4c-0.1,0.8,0.5,1.5,1.4,1.6c0.1,0,0.2,0,0.2,0h2.3
			c0.8-0.1,1.4-0.8,1.4-1.6C710.1,618.2,709.5,617.6,708.8,617.5z"/>
		<path class="st1" d="M700.6,627.4h-2.3c-0.8,0-1.5,0.7-1.5,1.5c0,0.8,0.7,1.5,1.5,1.5h2.3c0.8,0,1.5-0.7,1.5-1.5
			C702.1,628,701.5,627.4,700.6,627.4z"/>
		<path class="st1" d="M708.8,627.4h-2.3c-0.8,0-1.5,0.7-1.5,1.5c0,0.8,0.7,1.5,1.5,1.5h2.3c0.8,0,1.5-0.7,1.5-1.5
			C710.3,628,709.6,627.4,708.8,627.4z"/>
		<path class="st1" d="M700.6,637.2h-2.3c-0.8,0-1.5,0.7-1.5,1.5s0.7,1.5,1.5,1.5h2.3c0.8,0,1.5-0.7,1.5-1.5
			S701.5,637.2,700.6,637.2z"/>
		<path class="st1" d="M708.8,637.2h-2.3c-0.8,0-1.5,0.7-1.5,1.5s0.7,1.5,1.5,1.5h2.3c0.8,0,1.5-0.7,1.5-1.5
			S709.6,637.2,708.8,637.2z"/>
		<path class="st1" d="M700.6,647h-2.3c-0.8,0-1.5,0.7-1.5,1.5c0,0.8,0.7,1.5,1.5,1.5h2.3c0.8,0,1.5-0.7,1.5-1.5
			C702.1,647.7,701.5,647,700.6,647z"/>
		<path class="st1" d="M708.8,647h-2.3c-0.8,0-1.5,0.7-1.5,1.5c0,0.8,0.7,1.5,1.5,1.5h2.3c0.8,0,1.5-0.7,1.5-1.5
			C710.3,647.7,709.6,647,708.8,647z"/>
		<path class="st1" d="M700.6,656.8h-2.3c-0.8,0-1.5,0.7-1.5,1.5s0.7,1.5,1.5,1.5h2.3c0.8,0,1.5-0.7,1.5-1.5
			S701.5,656.8,700.6,656.8z"/>
		<path class="st1" d="M708.8,656.8h-2.3c-0.8,0-1.5,0.7-1.5,1.5s0.7,1.5,1.5,1.5h2.3c0.8,0,1.5-0.7,1.5-1.5
			S709.6,656.8,708.8,656.8z"/>
		<path class="st1" d="M700.6,666.7h-2.3c-0.8-0.1-1.5,0.5-1.6,1.4c-0.1,0.8,0.5,1.5,1.4,1.6c0.1,0,0.2,0,0.2,0h2.3
			c0.8-0.1,1.4-0.8,1.4-1.6C701.9,667.3,701.4,666.7,700.6,666.7z"/>
		<path class="st1" d="M708.8,666.7h-2.3c-0.8-0.1-1.5,0.5-1.6,1.4c-0.1,0.8,0.5,1.5,1.4,1.6c0.1,0,0.2,0,0.2,0h2.3
			c0.8-0.1,1.4-0.8,1.4-1.6C710.1,667.3,709.5,666.7,708.8,666.7z"/>
		<path class="st1" d="M700.6,676.5h-2.3c-0.8,0-1.5,0.7-1.5,1.5s0.7,1.5,1.5,1.5h2.3c0.8,0,1.5-0.7,1.5-1.5
			S701.5,676.5,700.6,676.5z"/>
		<path class="st1" d="M708.8,676.5h-2.3c-0.8,0-1.5,0.7-1.5,1.5s0.7,1.5,1.5,1.5h2.3c0.8,0,1.5-0.7,1.5-1.5
			S709.6,676.5,708.8,676.5z"/>
		<path class="st1" d="M700.6,686.3h-2.3c-0.8,0-1.5,0.7-1.5,1.5s0.7,1.5,1.5,1.5h2.3c0.8,0,1.5-0.7,1.5-1.5
			S701.5,686.3,700.6,686.3z"/>
		<path class="st1" d="M708.8,686.3h-2.3c-0.8,0-1.5,0.7-1.5,1.5s0.7,1.5,1.5,1.5h2.3c0.8,0,1.5-0.7,1.5-1.5
			S709.6,686.3,708.8,686.3z"/>
		<path class="st1" d="M474.1,617.1c-13.1,0-24.5,8.8-27.9,21.5c-1.5-1.3-3.2-2.3-5.1-3.1c-10.6-4.6-23,0.2-27.6,10.8
			c-4.6,10.6,0.2,23,10.8,27.6c2.2,1,4.6,1.5,7,1.7v21.7c-0.1,0.8,0.5,1.5,1.4,1.6s1.5-0.5,1.6-1.4c0-0.1,0-0.2,0-0.2v-21.7
			c3.9-0.2,7.6-1.6,10.7-3.8c2.8-2,5.1-4.7,6.6-7.8c5.1,6.4,12.8,10.3,21,10.7v22.6c0,0.8,0.7,1.5,1.5,1.5c0.8,0,1.5-0.7,1.5-1.5
			c0,0,0,0,0,0v-22.6c15.9-0.8,28.1-14.4,27.3-30.3C502,629.1,489.4,617.1,474.1,617.1L474.1,617.1z M443.7,670
			c-2.8,2-6.1,3.2-9.5,3.4v-6.7l11.3-11.3c0.7-0.5,0.8-1.4,0.3-2.1c-0.5-0.7-1.4-0.8-2.1-0.3c-0.1,0.1-0.2,0.2-0.3,0.3l-9.3,9.3
			v-9.9l4.8-4.8c0.5-0.6,0.5-1.5,0-2c-0.6-0.6-1.5-0.6-2.1,0l-2.7,2.7V643c0.1-0.8-0.5-1.5-1.4-1.6c-0.8-0.1-1.5,0.5-1.6,1.4
			c0,0.1,0,0.2,0,0.2v5.3l-2.6-2.6c-0.5-0.7-1.4-0.8-2.1-0.4c-0.7,0.5-0.8,1.4-0.4,2.1c0.1,0.1,0.2,0.2,0.3,0.3l4.7,4.7v9.9
			l-9.1-9.2c-0.6-0.6-1.5-0.6-2.1,0c-0.5,0.6-0.5,1.5,0,2l11.2,11.2v6.9c-10.4-0.8-18.2-9.8-17.4-20.2c0.7-9.9,9-17.5,18.9-17.5
			c5,0,9.8,2,13.3,5.5c-0.2,1.4-0.3,2.8-0.3,4.3c0,5.6,1.6,11.1,4.6,15.9C449.1,664.8,446.8,667.8,443.7,670z M493.1,664.8
			c-4.7,4.7-10.9,7.5-17.5,7.8v-8.2l20.4-20c0.6-0.6,0.6-1.5,0-2c-0.5-0.6-1.4-0.6-2,0c0,0,0,0,0,0l-18.4,18v-10.9l11.3-10.8
			c0.5-0.5,0.5-1.4,0-2c-0.6-0.6-1.5-0.6-2,0l-9.2,8.8V636l5-4.5c0.4-0.7,0.2-1.5-0.4-2c-0.5-0.3-1.1-0.3-1.5,0l-2,2.5v-5.2
			c0-0.8-0.7-1.5-1.5-1.5c-0.8,0-1.5,0.7-1.5,1.5v5.2l-3-2.6c-0.6-0.6-1.5-0.6-2,0c-0.5,0.5-0.5,1.4,0,2l4,4.7v9.5l-9.1-9.2
			c-0.6-0.6-1.5-0.6-2.1,0c-0.5,0.6-0.5,1.5,0,2l11.2,11.3V661L454,642.4c-0.6-0.6-1.5-0.6-2.1,0c0,0,0,0,0,0
			c-0.6,0.6-0.6,1.5,0,2.1l20.7,20.8v7.5c-17.6-1-30.3-18.7-23.5-36.8c2.9-7.8,9.6-13.8,17.7-15.9c18.8-4.8,34.9,9.8,34,27.4
			C500.5,654,497.7,660.2,493.1,664.8L493.1,664.8z"/>
		<path class="st1" d="M844.2,657.8c1.8-4.7-0.3-9.9-4.8-11.7c-1.1-0.4-2.2-0.7-3.3-0.7c-0.8,0-1.6,0.1-2.3,0.3
			c-2.7-5.5-9.3-7.9-14.9-5.4c-0.9-1.9-2.3-3.5-4.1-4.7c3-6.3,0.2-13.9-6.1-16.9c-1.7-0.8-3.5-1.2-5.4-1.2c-1.4,0-2.7,0.2-4,0.6
			c-3.9-8.5-13.9-12.3-22.4-8.4c-3.7,1.7-6.7,4.7-8.4,8.4c-1.3-0.4-2.6-0.7-4-0.6c-7,0-12.7,5.7-12.7,12.7c0,1.8,0.4,3.7,1.2,5.3
			c-1.7,1.2-3.1,2.8-4.1,4.7c-5.6-2.5-12.2-0.1-14.9,5.4c-0.8-0.2-1.6-0.3-2.3-0.3c-4.8,0-8.8,3.9-8.8,8.8c0,1.1,0.2,2.3,0.7,3.3
			c-3.8,2.9-4.6,8.4-1.6,12.3c1.2,1.6,3,2.7,4.9,3.2c1.8,6.1,8.2,9.6,14.3,7.8c0.7-0.2,1.3-0.5,1.9-0.8v17.2c0,0.8,0.7,1.4,1.5,1.4
			c0.8,0,1.4-0.6,1.5-1.4v-17.2c1.4,0.8,3.1,1.2,4.7,1.2c0.5,0,1,0,1.5-0.1c4.5-0.6,8.2-3.8,9.5-8.1c3.6-0.9,6.3-3.9,6.7-7.6
			c1.5-0.2,2.9-0.9,4.1-1.8c1-0.8,1.9-1.8,2.5-2.9l3.1,3.1l-1.4,33.4c0,0.8,0.6,1.5,1.4,1.5c0,0,0.1,0.4,0.1,0.4h11.7
			c0.8,0,1.4-0.6,1.4-1.4c0,0,0,0,0-0.1l-1.4-33.4l3.1-3.1c0.6,1.1,1.4,2.1,2.4,2.9c1.2,0.9,2.6,1.6,4.1,1.8c0.4,3.7,3,6.8,6.6,7.6
			c1.3,4.3,5,7.5,9.4,8.1c0.5,0.1,1,0.1,1.5,0.1c1.7,0,3.3-0.4,4.8-1.2v17c-0.1,0.8,0.5,1.5,1.4,1.5c0.8,0.1,1.5-0.5,1.6-1.3
			c0-0.1,0-0.2,0-0.2v-17.2c5.9,2.9,13.1,0.6,16-5.1c0.3-0.6,0.6-1.3,0.8-1.9c4.9-1.1,7.9-5.8,6.8-10.5c-0.5-2-1.6-3.7-3.3-4.9
			H844.2z M760.6,671.6h-0.3h-0.1l0,0h-0.1h-0.1H760c0,0,0,0-0.1,0h-0.1h-0.1h-0.1l0,0h-0.1l0,0c0,0,0,0,0,0l0,0l-0.1,0.1l0,0
			c0,0,0,0,0,0.1l0,0c0,0,0,0,0,0.1v0.1v0.1v0.1l0,0c0,0,0,0.1,0,0.1l0,0c-0.7,3.6-3.5,6.4-7.1,6.9c-2,0.3-4.1-0.3-5.7-1.6v-4.5
			l8.8-9.3c0.7-0.4,0.9-1.3,0.4-2c-0.4-0.7-1.3-0.9-2-0.4c-0.2,0.1-0.3,0.3-0.4,0.4l-7.8,7.3v-4.2l5.7-5c0.6-0.5,0.8-1.4,0.3-2
			c-0.5-0.6-1.4-0.8-2-0.3c-0.1,0.1-0.2,0.2-0.3,0.2l-2.7,3.1v-4.1l1.5-2.6c0.4-0.7,0.2-1.5-0.4-2c-0.5-0.3-1.1-0.3-1.5,0l-0.5,0.6
			v-1.7c0-0.8-0.7-1.5-1.5-1.5s-1.5,0.7-1.5,1.5v1.6l-0.4-0.5c-0.6-0.5-1.4-0.5-2,0c-0.5,0.5-0.5,1.4,0,2l3.4,2.5v3.9l-5.1-4.2
			c-0.4-0.7-1.3-0.9-2-0.4s-0.9,1.3-0.4,2c0.1,0.2,0.3,0.3,0.4,0.4l6,6.2v4.8l-9.6-9.5c-0.6-0.5-1.5-0.3-2,0.3
			c-0.4,0.5-0.3,1.2,0,1.7l12.5,11.6v3.4c-4.1,3.1-9.9,2.3-13-1.8c-0.8-1.1-1.4-2.4-1.7-3.8l0,0c0,0,0-0.1,0-0.1v0.3v-0.1v-0.1v-0.1
			c0.2,0,0.2,0,0.1-0.1l0,0c0,0,0,0,0-0.1l0,0l0-0.1l0,0l-0.1-0.4l0,0l0,0h-0.1l0,0H729H729c0,0.4,0,0.4-0.1,0h-0.1h0h-0.1l0,0h-0.1
			l0,0c-3.2,0-5.6-2.9-5.2-6.1c0.2-1.9,1.4-3.7,3.1-4.6c0.3-0.2,0.6-0.5,0.7-0.9c0.1-0.4,0-0.8-0.2-1.1c-1.7-2.8-0.9-6.4,1.9-8.1
			c0.9-0.6,2-0.9,3.1-0.9c0.9,0,1.7,0.2,2.5,0.6c0.7,0.3,1.6,0,1.9-0.7c0,0,0-0.1,0.1-0.2c1.6-4.5,6.5-6.9,11.1-5.3
			c0.2,0.1,0.5,0.2,0.7,0.3c-0.2,1-0.4,2-0.4,3c0,6,4.2,11.2,10.1,12.4c0.9,3.7,4,6.4,7.8,6.9c-0.7,2.5-3,4.3-5.3,4.3V671.6z
			 M787.2,662.6c-0.3,0.3-0.4,0.7-0.4,1.1l1.4,32.5h-8.7l1.4-32.5c0-0.4-0.1-0.8-0.4-1.1l-13.3-13.3c1.4-0.9,2.7-2.2,3.6-3.6
			c0.1,0.2,0.2,0.5,0.4,0.6l11.8,11.8c0.6,0.5,1.4,0.5,2,0L797,646c0.9,1.3,2.1,2.4,3.5,3.3L787.2,662.6z M773.4,644
			c2.3,0,4.4-1.1,5.6-3c1.7-0.1,3.4-0.7,4.8-1.8c1.4,1.1,3,1.7,4.8,1.8c1.3,1.9,3.4,3,5.7,3h0.2L784,654.7L773.4,644z M800.5,661.8
			c-2.6,0.1-5-1.5-5.8-4l8-8c2.5,0.9,5.3,0.9,7.8,0c0.7-0.2,1.1-1,0.9-1.8s-1-1.1-1.8-0.9c-4.8,1.7-10-0.9-11.7-5.7v-0.1v-0.1v-0.1
			l0,0l0,0v-0.1l0,0v-0.1l0,0v-0.1h-0.1l0,0h-0.1l0,0h-0.1h0h-0.1h0h-0.1h-0.1h-0.1h-0.1h-0.1h-0.5h-0.1h0h-0.1l0,0l0,0h-0.1h-0.1
			l0,0c-2,1-4.4,0.2-5.4-1.8l0,0c0,0,0-0.1,0-0.1v0.2v-0.1v-0.1l0,0l0.1-0.1l0,0l-0.1-0.1l0,0l-0.1-0.1h-0.1h-0.1h-0.1l0,0h-0.1l0,0
			h-0.1l0,0h-0.3c-1.7,0-3.4-0.7-4.6-1.9c-0.3-0.3-0.6-0.4-1-0.1h-0.1c-0.4-0.3-0.7-0.2-1,0.1c-1.2,1.2-4.6,1.9-4.6,1.9h-0.1h0h-0.1
			l0,0h-0.1l0,0h-0.1h-0.1h-0.1l-0.1,0.1l0,0c0,0,0,0-0.1,0.1l0,0l-0.1,0.1l0,0c0,0,0,0,0,0.1v0.1l0,0v0.1l0,0
			c-0.9,1.8-3.1,2.5-4.9,1.6h-0.8h-0.1h-0.1l0,0l0,0h-0.1h-0.1h-0.1h-0.5h-0.1h-0.1h-0.1h-0.1h-0.1l0,0h-0.1l0,0l-1.3,1l0,0h-0.1
			l0,0h-0.5v-1l0,0l1,0.1V641v0.1l0,0l0,0v0.1v0.1l0,0c-1.7,4.8-6.9,7.3-11.7,5.7c-0.7-0.2-1.5,0.1-1.8,0.9
			c-0.2,0.7,0.1,1.5,0.9,1.8l0,0c2.5,0.9,5.3,0.9,7.8,0l8,8c-0.8,2.7-3.4,4.5-6.3,4.3c-3.1,0-5.8-2.3-6.2-5.4
			c-0.1-0.6-0.6-1.1-1.2-1.2c-5.2-0.6-9-5.3-8.4-10.5c0.4-3.1,2.2-5.8,5-7.3c0.3-0.2,0.6-0.5,0.7-0.9c0.1-0.4,0-0.8-0.2-1.1
			c-2.8-4.5-1.4-10.3,3.1-13.1c2.7-1.7,6.2-1.9,9.1-0.5c0.7,0.3,1.5,0,1.8-0.6c0,0,0-0.1,0.1-0.1c2.5-7.1,10.3-10.8,17.4-8.3
			c3.9,1.4,6.9,4.4,8.3,8.3c0.1,0.4,0.4,0.7,0.8,0.8c0.4,0.2,0.8,0.2,1.1,0c4.7-2.3,10.4-0.3,12.7,4.5c1.4,2.9,1.2,6.4-0.5,9.1
			c-0.2,0.3-0.2,0.7-0.2,1.1c0.1,0.4,0.3,0.7,0.7,0.9c6.1,3.3,7.2,12.4,0.1,16.9c-1,0.6-2.2,0.8-3.4,0.9c-0.6,0.1-1.2,0.5-1.2,1.2
			C806.3,659.5,803.7,661.8,800.5,661.8z M839.5,670.6h0.4h-0.1l0,0h-0.1h-0.1h-0.1H839.5L839.5,670.6L839.5,670.6h-0.1l0,0h-0.1
			l0,0l0,0l0,0l-0.1,0.1l0,0v0.1l0,0c0,0,0,0,0,0.1v0.1v0.1v0.1l0,0c0,0,0,0.1,0,0.1l0,0c-1,4.7-5.6,7.7-10.3,6.7
			c-1.3-0.3-2.4-0.8-3.5-1.5v-3.6l10.8-11.1c0.6-0.5,0.6-1.4,0-2c0,0,0,0,0,0c-0.6-0.6-1.5-0.6-2,0l-9.8,9.6v-4.8l6.4-6.2
			c0.5-0.5,0.5-1.4,0-2c-0.6-0.6-1.5-0.6-2,0l-4.4,4.2v-3.9l2.7-2.5c0.4-0.7,0.2-1.5-0.4-2c-0.5-0.3-1.1-0.3-1.5,0l0.3,0.5v-1.7
			c0,0-1.3-1.5-2.1-1.5c-0.8-0.1-1.5,0.5-1.5,1.3c0,0.1-0.3,0.2-0.3,0.2v1.7l-0.2-0.6c-0.6-0.5-1.4-0.5-2,0c-0.5,0.5-0.5,1.4,0,2
			l3.2,2.6v4l-3.8-3.1c-0.5-0.6-1.4-0.7-2-0.2s-0.7,1.4-0.2,2c0.1,0.1,0.2,0.2,0.3,0.2l4.8,5v4.8l-6.9-7.3c-0.6-0.5-1.4-0.5-2,0
			c-0.5,0.5-0.5,1.4,0,2l9.9,9.3v3.3c0,0-4.3,1.9-6.4,1.6c-3.7-0.5-6.6-3.3-7.3-6.9l0,0v-0.1l0,0v-0.1v-0.1v-0.1V671l0,0
			c0,0,0,0,0-0.1l0,0l0-0.1l0,0l-0.1-1.2l0,0l0,0h-0.1l0,0h-0.1h-0.1h-0.1h-0.1h-0.1h-0.1h0H808l0,0c-2.6,0.9-4.7-1.1-5.1-3.7
			c3.8-0.5,6.9-3.3,7.8-6.9c6.9-1.4,11.3-8.1,9.9-14.9c0-0.2-0.1-0.3-0.1-0.5c1.1-0.5,2.4-0.8,3.6-0.8c3.7,0,7,2.3,8.2,5.8
			c0.1,0.4,0.4,0.7,0.8,0.8c0.4,0.2,0.8,0.2,1.2,0c0.8-0.4,1.6-0.6,2.5-0.6c3.3,0,5.9,2.6,5.9,5.9c0,1.1-0.3,2.2-0.9,3.1
			c-0.2,0.3-0.3,0.7-0.2,1.1c0.1,0.4,0.4,0.7,0.7,0.9c2.9,1.5,4,5.1,2.5,8c-0.9,1.7-2.6,2.9-4.6,3.1L839.5,670.6z"/>
		<path class="st1" d="M445.5,593.9c0.3,0.2,0.7,0.4,1.1,0.4c0.6,0,1.1-0.3,1.4-0.7c0.6-0.8,0.4-1.9-0.4-2.5c0,0,0,0-0.1,0
			c-3.1-2.2-5.2-5.5-5.8-9.2c-0.1-0.9-1-1.6-1.9-1.4c0,0-0.1,0-0.1,0c-0.9,0.1-1.6,0.9-1.5,1.9c0,0.1,0,0.1,0,0.2
			C439.1,587,441.7,591.2,445.5,593.9z"/>
		<path class="st1" d="M470.2,579.3c0,2.2-0.5,4.5-1.5,6.4c-0.5,0.9-0.1,2,0.8,2.4c0.9,0.5,2,0.1,2.4-0.8c1.3-2.5,1.9-5.2,1.9-8
			c0-1.9-0.4-3.8-1-5.6c-0.3-1-1.3-1.5-2.3-1.2c-1,0.3-1.5,1.3-1.2,2.3C469.9,576.3,470.2,577.8,470.2,579.3z"/>
		<path class="st1" d="M454.8,565.4h0.4c4.2,0,8.2,1.6,11.1,4.6c0.4,0.4,0.9,0.5,1.4,0.5c0.5,0,1.1-0.2,1.4-0.5c0.8-0.7,0.8-2,0-2.7
			l-0.6-0.6c-3.4-3.4-7.9-5.2-12.7-5.2H455c-1.1,0-1.9,0.9-2,2C453.1,564.5,453.8,565.3,454.8,565.4z"/>
		<path class="st1" d="M453.2,597c0.9,0.1,1.7,0.2,2.6,0.2c3.8,0,7.5-1.2,10.6-3.5c0.8-0.5,1-1.7,0.5-2.5c-0.5-0.8-1.7-1-2.5-0.5
			c-0.1,0-0.1,0.1-0.2,0.1c-2.5,1.8-5.4,2.8-8.5,2.9c-0.7,0-1.4,0-2-0.1c-1-0.1-1.9,0.5-2,1.5c0,0,0,0,0,0.1
			c-0.2,0.8,0.4,1.6,1.2,1.7C453,597,453.1,597,453.2,597z"/>
		<path class="st1" d="M440,576.2c0.1,0,0.4,0.1,0.5,0.1c0.8,0,1.5-0.5,1.7-1.3c1.1-3.6,3.6-6.7,6.9-8.5c0.8-0.5,1.2-1.5,0.7-2.4
			c-0.5-0.8-1.5-1.2-2.4-0.7c-4.1,2.3-7.2,6-8.7,10.5C438.4,575,438.9,576,440,576.2C439.9,576.2,440,576.2,440,576.2z"/>
		<path class="st1" d="M455.8,587.5c-2.1,0-4.2-0.9-5.6-2.4c-0.7-0.7-1.8-0.7-2.5,0c-0.7,0.7-0.7,1.8,0,2.5c0,0,0,0,0.1,0.1
			c2.2,2.2,5.1,3.4,8.2,3.5h0.2c1,0,1.8-0.8,1.8-1.8c-0.1-1-1-1.8-2-1.8L455.8,587.5z"/>
		<path class="st1" d="M465.6,577.6c-1,0-1.8,0.8-1.8,1.8c0,2.1-0.9,4.2-2.4,5.7c-0.7,0.7-0.7,1.8,0,2.5c0,0,0,0,0,0
			c0.3,0.4,0.8,0.6,1.3,0.6c0.5,0,0.9-0.1,1.2-0.5c2.3-2.2,3.5-5.2,3.5-8.3C467.4,578.3,466.6,577.6,465.6,577.6z"/>
		<path class="st1" d="M447.8,570.9c-2.4,2.4-3.7,5.6-3.7,8.9v0.4c0,0.7,0.3,1.3,1,1.7c1.5,0.8,3-0.3,3-1.7v-0.3
			c0-2.3,0.9-4.5,2.5-6.2c0.8-0.7,0.8-1.9,0.1-2.7c0,0,0,0-0.1-0.1c-0.6-0.8-1.8-0.9-2.5-0.3C447.9,570.7,447.8,570.8,447.8,570.9z"
			/>
		<path class="st1" d="M455.4,571.9c2.3-0.1,4.5,0.8,6.1,2.5c0.3,0.4,0.8,0.6,1.3,0.6c0.4,0,0.9-0.1,1.2-0.5
			c0.7-0.7,0.7-1.8,0.1-2.4c0,0,0,0-0.1-0.1c-2.2-2.3-5.2-3.6-8.3-3.6h-0.5c-0.9,0-1.7,0.8-1.7,1.7c0,0.1,0,0.1,0,0.2
			C453.7,571.2,454.5,571.9,455.4,571.9z"/>
		<path class="st1" d="M453.1,583.9c0.3,0.2,0.6,0.3,1,0.2c0.6,0,1.2-0.3,1.6-0.8c0.5-0.9,0.2-1.9-0.6-2.5c-0.4-0.2-0.6-0.6-0.7-1
			c-0.3-1-1.3-1.5-2.3-1.2c-1,0.3-1.5,1.3-1.2,2.3C451.2,582.1,452,583.2,453.1,583.9z"/>
		<path class="st1" d="M454.2,578.7c0.3,0,0.6-0.1,0.9-0.3c0.2-0.1,0.5-0.2,0.8-0.3h0.5c1,0.3,2.1-0.3,2.4-1.4
			c0.3-1-0.3-2.1-1.4-2.4c-0.1,0-0.2,0-0.2,0c-0.4,0-0.6-0.1-1-0.1h-0.3c-0.9,0-1.7,0.2-2.5,0.6c-0.9,0.5-1.2,1.6-0.9,2.5
			C452.7,578.2,453.4,578.7,454.2,578.7z"/>
		<path class="st1" d="M458.5,583.4c0.5,0,1-0.2,1.3-0.6c0.8-1,1.3-2.2,1.3-3.5c0-1-0.8-1.8-1.8-1.8s-1.8,0.8-1.8,1.8l0,0
			c0,0.4-0.1,0.8-0.4,1.1c-0.6,0.7-0.5,1.8,0.2,2.5c0,0,0,0,0,0C457.7,583.2,458.1,583.4,458.5,583.4z"/>
		<path class="st1" d="M850,618.5L850,618.5v-0.7c-0.6-0.8-1.3-1.4-2.1-1.4c-0.8,0-1.4,0.6-1.9,1.4v0.7h0.1
			c-0.8-0.3-1.4,0.3-1.4,1.1s0.6,1.4,1.4,1.9l0,0h-0.1v-0.1c0.5,0.8,1.1,1.4,1.9,1.4c0.8,0,2.1-1.4,2.1-1.4v0.1h-0.2
			c0.8-0.5,1.4-1.1,1.4-1.9s-0.6-1.4-1.2-1.4l0,0V618.5z"/>
		<path class="st1" d="M881.2,621.7c0.1,0.8,0.8,1.3,1.6,1.2c0.6-0.1,1.1-0.6,1.2-1.2c0.8-0.1,1.3-0.8,1.2-1.6
			c-0.1-0.6-0.6-1.1-1.2-1.2c-0.1-0.8-0.8-1.3-1.6-1.2c-0.6,0.1-1.1,0.6-1.2,1.2c-0.8,0.1-1.3,0.8-1.2,1.6
			C880.1,621.1,880.6,621.6,881.2,621.7z"/>
		<path class="st1" d="M895.2,583.1h1v1c-0.1,0.8,0.5,1.5,1.4,1.6c0.8,0.1,1.5-0.5,1.6-1.4c0-0.1,0-0.2,0-0.2v-1h1
			c0.8,0.1,1.5-0.5,1.6-1.4c0.1-0.8-0.5-1.5-1.4-1.6c-0.1,0-0.2,0-0.2,0h-1v-1c0.1-0.8-0.5-1.5-1.4-1.6c-0.8-0.1-1.5,0.5-1.6,1.4
			c0,0.1,0,0.2,0,0.2v1h-1c-0.8-0.1-1.5,0.5-1.5,1.3s0.5,1.5,1.3,1.6C895.1,583.1,895.1,583.1,895.2,583.1L895.2,583.1z"/>
		<path class="st1" d="M838,599.8h14.8c0.8,0,1.5-0.7,1.5-1.5s-0.7-1.5-1.5-1.5H838c-0.8,0-1.5,0.7-1.5,1.5S837.2,599.8,838,599.8z"
			/>
		<path class="st1" d="M858.8,599.8h7c0.8,0,1.5-0.7,1.5-1.5s-0.7-1.5-1.5-1.5l0,0h-7c-0.8,0-1.5,0.7-1.5,1.5S858,599.8,858.8,599.8
			z"/>
		<path class="st1" d="M861.6,601.8h-15.6c-0.8-0.1-1.5,0.5-1.6,1.4s0.5,1.5,1.4,1.6c0.1,0,0.2,0,0.2,0h15.6
			c0.8,0.1,1.5-0.5,1.6-1.4c0.1-0.8-0.5-1.5-1.4-1.6C861.7,601.8,861.6,601.8,861.6,601.8z"/>
		<path class="st1" d="M748.4,591h37.2c0.8,0,1.4-0.6,1.4-1.4c0,0,0,0,0,0c-0.2-5.4-4.5-9.8-10-10c-4.3-6.2-12.8-7.7-19-3.4
			c-2.2,1.5-3.8,3.6-4.8,6c-3.6,0.6-6.3,3.7-6.3,7.4c0,0.4,0.2,0.7,0.4,1C747.7,590.8,748.1,591,748.4,591z M754.4,584.1
			c0.6,0.3,1.1-0.1,1.3-0.6c1.9-5.7,8-8.8,13.6-6.9c2.4,0.8,4.5,2.4,5.8,4.6c0.3,0.4,1.3,1,1.3,1h0.4l7.3,4.9h-33.8
			c0.5-1.7,2.1-2.9,3.9-2.9H754.4z"/>
		<path class="st1" d="M1215.1,596.3c-0.7,0-1.3,0.5-1.4,1.2c-0.8,0.1-1.3,0.8-1.2,1.6c0.1,0.7,0.6,1.2,1.2,1.2
			c0.1,0.7,0.7,1.2,1.4,1.2c0.7,0,1.3-0.5,1.4-1.2c0.8-0.1,1.3-0.8,1.2-1.6c-0.1-0.7-0.6-1.2-1.2-1.2
			C1216.4,596.8,1215.8,596.3,1215.1,596.3z"/>
		<path class="st1" d="M1186.9,586.1h1.2v1.2c0,0.8,0.7,1.5,1.5,1.5s1.5-0.7,1.5-1.5v-1.2h1.2c0.8,0.1,1.5-0.5,1.6-1.4
			c0.1-0.8-0.5-1.5-1.3-1.6c-0.1,0-0.2,0-0.2,0h-1.2v-1.2c0-0.8-0.7-1.5-1.5-1.5s-1.5,0.7-1.5,1.5v1.2h-1.2
			c-0.8-0.1-1.5,0.5-1.6,1.4c-0.1,0.8,0.5,1.5,1.3,1.6C1186.7,586.1,1186.8,586.1,1186.9,586.1z"/>
		<path class="st1" d="M1224.8,581.7c0-0.8-0.7-1.5-1.5-1.5h-10.7c-0.8,0-1.5,0.7-1.5,1.5c0,0.8,0.7,1.5,1.5,1.5h10.7
			C1224.1,583.1,1224.8,582.5,1224.8,581.7z"/>
		<path class="st1" d="M1198.9,575.3h27.2c0.8,0,1.5-0.7,1.5-1.5c0-0.8-0.7-1.5-1.5-1.5h-27.2c-0.8,0-1.5,0.7-1.5,1.5
			C1197.4,574.6,1198.1,575.3,1198.9,575.3z"/>
		<path class="st1" d="M1220.2,577.7L1220.2,577.7c0-0.8-0.7-1.5-1.5-1.5h-14.9c-0.8-0.1-1.5,0.5-1.6,1.4c-0.1,0.8,0.5,1.5,1.4,1.6
			c0.1,0,0.2,0,0.2,0h14.9C1219.5,579.2,1220.2,578.5,1220.2,577.7z"/>
		<path class="st1" d="M200.3,586.1h21.3c-0.9,1-1.3,2.2-1.3,3.5c0,0.8,0.7,1.4,1.4,1.4l0,0h23.9c0.4,0,0.7-0.2,1-0.4
			c0.3-0.3,0.4-0.6,0.4-1c-0.1-3.7-3-6.7-6.6-6.9c-1.7-2.4-4.5-3.8-7.5-3.8c-1.1,0-2.2,0.2-3.3,0.6c-1.5-1.9-3.7-3-6.1-3.2
			c-3.6-5-10.6-6.2-15.7-2.6c-1.7,1.2-3,2.9-3.8,4.8c-3,0.6-5.1,3.2-5.1,6.2C198.9,585.4,199.5,586.1,200.3,586.1z M232.9,581.9
			c2.2,0,4.3,1.1,5.4,3c0.3,0.4,0.8,0.7,1.3,0.2h0.2c1.7,0.5,3.3,1.6,3.9,2.9h-20.1c0.4-0.4,1.2-0.8,1.9-0.8c0.6,0,1.1-0.4,1.3-1
			C227.7,583.7,230.1,581.9,232.9,581.9z M205.5,581.2c0.6,0,1.1-0.4,1.3-0.9c1.4-4.2,5.9-6.5,10.1-5.1c1.8,0.6,3.4,1.8,4.4,3.5
			c0.3,0.4,0.7,0.7,1.2,0.7h0.2c1.5,0,2.9,0.6,3.9,1.7c-0.8,0.6-1.5,1.4-2,2.2h-22C203.2,582,204.3,581.2,205.5,581.2z"/>
		<path class="st1" d="M67.3,640.3c2.9-6,0.1-13.2-6.2-15.9c-1.6-0.7-3.4-1.1-5.2-1.1c-1.3,0-2.6,0.2-3.9,0.6
			c-2.7-5.7-8.6-9.3-15.1-9.3H37c-6.5,0-12.4,3.6-15.1,9.3c-1.2-0.4-2.5-0.6-3.9-0.6c-6.9,0-12.5,5.4-12.4,12.1c0,1.7,0.4,3.4,1.1,5
			c-5.6,3.8-6.9,11.3-2.9,16.7c1.8,2.5,4.6,4.2,7.6,4.8c1.7,6.2,7.2,10.8,13.8,11.7c0.7,0.1,1.5,0.1,2.2,0.1c2.7,0,5.4-0.6,7.8-1.9
			v25.6c-0.1,0.8,0.5,1.5,1.4,1.5c0.8,0.1,1.5-0.5,1.6-1.3c0-0.1,0-0.2,0-0.2v-25.9c2.6,1.4,5.5,2.2,8.4,2.2c0.7,0,1.5,0,2.2-0.1
			c6.6-0.9,12-5.5,13.8-11.6c6.7-1.3,11.1-7.7,9.7-14.2C71.7,644.7,69.9,642.1,67.3,640.3z M59.8,658.8L59.8,658.8h-0.1h-0.1h-0.1
			h-0.1h-0.1l0,0h-0.1h0l-0.1,1h-0.4v-1l0,0v0.4v0.1l0,0l0.2,0.1l0,0c0,0,0.8,0.1,0.8,0.1V659v0.1v0.1c0,0,0,0,0,0.1
			c0,0,0,0.1,0,0.1l0,0c-1.6,7.7-9.1,12.6-16.7,11c-1.9-0.4-3.7-1.2-5.3-2.3c0-0.3-0.2-0.5-0.3-0.7c-0.1-0.1-0.1-0.2-0.2-0.2v-5
			l17.5-16.5c0.5-0.6,0.3-1.5-0.3-2c-0.5-0.4-1.2-0.4-1.7,0l-14.5,14.9v-8.7l8.7-9.1c0.6-0.5,0.8-1.4,0.3-2c-0.5-0.6-1.4-0.8-2-0.3
			c-0.1,0.1-0.2,0.2-0.3,0.3l-6.7,7.1v-7.5l3.3-3.8c0.4-0.7,0.2-1.5-0.4-2c-0.5-0.3-1.1-0.3-1.5,0l-1.4,1.7v-3.9
			c-0.4-0.8-1-1.5-1.8-1.5c-0.8-0.1-1.5,0.5-1.5,1.3c0,0.1-0.6,0.2-0.6,0.2v3.9l-1.2-1.9c-0.7-0.4-1.5-0.2-2,0.4
			c-0.3,0.5-0.3,1.1,0,1.5l4.2,3.9v7.6l-5.9-5.5c-0.5-0.6-1.4-0.7-2-0.2c-0.6,0.5-0.7,1.4-0.2,2c0.1,0.1,0.2,0.2,0.2,0.2l7.9,7.4
			v8.7l-12-11.7c-0.5-0.6-1.4-0.6-2,0c0,0,0,0,0,0c-0.5,0.6-0.5,1.4,0,2l14,13.8v5.7c-6.3,4.2-14.5,2.7-18.6-3.2
			c-1-1.5-1.7-3.1-2.1-4.9l0,0c0,0,0-0.1,0.1-0.1v0v-0.1V660V660c-0.1,0-0.1,0-0.1-0.1l0,0l0-0.1l0,0l-0.3-1l0,0h0l0,0.7l0,0
			c0,0,0,0-0.1,0l0,0c0,0-0.1,0.3-0.1,0.3h0h-0.1h-0.1h-0.1h-0.1h-0.1h-0.3c-5.1-0.3-8.9-4.7-8.6-9.7c0.2-3.4,2.2-6.4,5.3-7.8
			c0.3-0.2,0.6-0.5,0.7-0.9c0.1-0.4,0.1-0.8-0.2-1.1c-2.6-4.3-1.3-10,3.1-12.6c2.6-1.6,5.9-1.8,8.7-0.5c0.4,0.2,0.8,0.2,1.2,0
			c0.4-0.2,0.7-0.5,0.8-0.8c1-2.8,2.9-5.2,5.4-6.8l0.2-0.1c1.9-1.2,4.1-1.8,6.4-1.9h1c2.2,0.1,4.4,0.7,6.3,1.9l0.2,0.1
			c2.5,1.6,4.4,3.9,5.3,6.7c0.1,0.4,0.4,0.7,0.8,0.8c0.4,0.2,0.8,0.2,1.1,0c4.5-2.1,9.9-0.2,12.1,4.3c1.3,2.8,1.1,6-0.5,8.6
			c-0.2,0.3-0.3,0.7-0.2,1.1c0.1,0.4,0.3,0.7,0.7,0.9c4.4,2.4,6,7.9,3.6,12.3C65.3,656.8,62.7,658.5,59.8,658.8L59.8,658.8z"/>
	</g>
</g>
</svg>
